<?xml version="1.0" encoding="UTF-8" standalone="no"?>
<svg xmlns="http://www.w3.org/2000/svg" version="1.0" viewBox="-18 -16 36 37">
  <path d="M 4.1016951 -1.7372881 A 7.0847459 7.0508475 0 1 1  -10.067797,-1.7372881 A 7.0847459 7.0508475 0 1 1  4.1016951 -1.7372881 z" transform="matrix(2.477719,0,0,2.477719,7.391162,6.804512)" style="fill:#CCC; stroke:#999; stroke-width:0.36;" />
  <path id="asia" style="fill:#E8E8E8; stroke:#666666; stroke-width:0.3px" d="M 4.2138055,13.818452 C 4.1432175,13.752226 3.9834635,13.620395 3.8587965,13.525494 C 3.7022755,13.406345 3.6192025,13.32194 3.5903625,13.252757 C 3.5673905,13.197652 3.5272125,13.121493 3.5010775,13.083512 C 3.4464775,13.004167 3.3448375,12.683837 3.3186705,12.508635 C 3.3051985,12.418432 3.2853115,12.383605 3.2367335,12.365135 C 3.1903475,12.347499 3.1765955,12.32541 3.1870685,12.285362 C 3.2127215,12.187265 2.9784635,11.895759 2.8739775,11.895759 C 2.7690395,11.895759 2.7475225,11.811429 2.7687775,11.48347 C 2.7823075,11.274721 2.7783675,11.168105 2.7555455,11.125462 C 2.7277425,11.073513 2.7321295,11.057379 2.7859025,11.013837 C 2.8397475,10.970235 2.8434525,10.956544 2.8117455,10.918339 C 2.7913875,10.893809 2.7583425,10.87374 2.7383105,10.87374 C 2.6832855,10.87374 2.6620885,10.821091 2.6991395,10.776448 C 2.7172275,10.754653 2.7358845,10.661669 2.7405985,10.569816 C 2.7477555,10.430366 2.7390325,10.390391 2.6877215,10.327526 C 2.6539255,10.28612 2.5912255,10.134157 2.5483905,9.9898309 C 2.4504025,9.6596809 2.3152945,9.3268989 2.2792425,9.3268989 C 2.2641055,9.3268989 2.1751485,9.3952079 2.0815595,9.4786969 C 1.9385115,9.6063069 1.8946035,9.6305139 1.8059995,9.6306189 C 1.6084965,9.6308519 1.5937435,9.6081589 1.5937435,9.3041579 C 1.5937435,9.0797159 1.5833725,9.0141949 1.5315935,8.9115139 C 1.4837795,8.8166959 1.4519215,8.7862509 1.3934825,8.7795269 C 1.3252365,8.7716739 1.3175215,8.7599509 1.3175215,8.6641059 C 1.3175215,8.5547709 1.2625495,8.4706129 1.1911345,8.4706129 C 1.1404585,8.4706129 0.8253165,8.0471229 0.8038325,7.9501539 C 0.7722395,7.8075599 0.7651305,7.7933799 0.7070545,7.7571109 C 0.6542705,7.7241469 0.6411345,7.7289379 0.5755405,7.8050779 C 0.5140815,7.8764199 0.4621895,7.8985029 0.2442155,7.9460739 C 0.0267275,7.9935389 -0.0290725,7.9971159 -0.1078265,7.9686369 C -0.1904955,7.9387439 -0.2102945,7.9414049 -0.2775165,7.9914429 C -0.3372745,8.0359239 -0.3566905,8.0771479 -0.3679215,8.1833899 C -0.3861075,8.3554199 -0.3979375,8.3726089 -0.5769795,8.4871399 C -0.6602065,8.5403799 -0.8209655,8.6937929 -0.9436245,8.8370309 C -1.0637625,8.9773249 -1.2132205,9.1330939 -1.2757525,9.1831849 C -1.3382855,9.2332749 -1.3894495,9.2963659 -1.3894495,9.3233859 C -1.3894495,9.3811859 -1.4885425,9.4786529 -1.5734275,9.5043459 C -1.6062515,9.5142799 -1.6534225,9.5534149 -1.6782535,9.5913119 C -1.7030845,9.6292089 -1.7383795,9.6583269 -1.7566855,9.6560179 C -1.8871255,9.6395659 -1.8973665,9.6908799 -1.8445955,10.096506 C -1.8043105,10.406165 -1.8045225,10.445021 -1.8474315,10.616116 C -1.8796785,10.744697 -1.8889965,10.858437 -1.8780145,10.989427 C -1.8624735,11.174798 -1.8634705,11.178463 -1.9402525,11.218169 C -2.0243985,11.261682 -2.0742535,11.387737 -2.0262875,11.435703 C -1.9692095,11.492781 -1.9975195,11.533368 -2.1003685,11.541909 C -2.1897215,11.54933 -2.2122795,11.566263 -2.2681665,11.667869 C -2.3363185,11.791775 -2.4387565,11.843285 -2.5193275,11.794164 C -2.6028285,11.743257 -2.7366895,11.511895 -2.7964215,11.315241 C -2.8293535,11.206819 -2.9289715,10.979224 -3.0177945,10.809475 C -3.1066175,10.639726 -3.2007325,10.432476 -3.2269395,10.348919 C -3.2531455,10.265362 -3.3463395,10.047837 -3.4340355,9.8655309 C -3.5217315,9.6832249 -3.6138315,9.4733749 -3.6387015,9.3991969 C -3.7454575,9.0807859 -3.8752745,8.5282829 -3.8753555,8.3919969 C -3.8754465,8.2373449 -3.9434755,7.9582199 -3.9877435,7.9308609 C -4.0019385,7.9220869 -4.0135535,7.9392149 -4.0135535,7.9689219 C -4.0135535,8.0293579 -4.1761695,8.1840709 -4.2819745,8.2242979 C -4.3722965,8.2586389 -4.4690005,8.1984819 -4.7005515,7.9639089 C -4.8755695,7.7866059 -4.8955345,7.7252099 -4.7784385,7.7243909 C -4.7161985,7.7239559 -4.6264755,7.6806549 -4.6496635,7.6622419 C -4.6568185,7.6565599 -4.7162745,7.6365079 -4.7817855,7.6176839 C -4.8472965,7.5988589 -4.9467365,7.5423769 -5.0027625,7.4921669 C -5.0587895,7.4419569 -5.1448155,7.3803279 -5.1939335,7.3552119 C -5.2430505,7.3300959 -5.3035465,7.2693599 -5.3283675,7.2202419 C -5.3531885,7.1711249 -5.4062255,7.0979779 -5.4462285,7.0576939 C -5.4862315,7.0174099 -5.5344275,6.9651829 -5.5533325,6.9416339 C -5.5909325,6.8947949 -5.7462914,6.8971079 -6.4047445,6.9543119 C -6.6385993,6.9746289 -6.7869881,6.9745369 -6.9019432,6.9540049 C -6.9920652,6.9379089 -7.1994647,6.9061739 -7.3628313,6.8834839 C -7.7647155,6.8276669 -7.8721444,6.7655599 -7.9227019,6.5598119 C -7.9326931,6.5191509 -7.9647404,6.4642789 -7.9939169,6.4378739 C -8.0445044,6.3920929 -8.0499534,6.3926699 -8.1113097,6.4503119 C -8.1941932,6.5281769 -8.3245152,6.5646839 -8.5195923,6.5646839 C -8.6598962,6.5646839 -8.6931017,6.5522479 -8.8512407,6.4404699 C -8.9478941,6.3721519 -9.0829093,6.2863729 -9.1512739,6.2498489 C -9.3001779,6.1702969 -9.3536862,6.1138579 -9.5205774,5.8603189 C -9.710521,5.5717589 -9.7076715,5.5744389 -9.844862,5.5553079 C -9.961039,5.5391089 -9.981055,5.5453319 -10.073327,5.6263479 C -10.139509,5.6844569 -10.165975,5.7259099 -10.149909,5.7462979 C -10.136407,5.7634329 -10.104034,5.8428209 -10.077969,5.9227159 C -10.04088,6.0364049 -9.983047,6.1164139 -9.811904,6.2908079 C -9.6916327,6.4133639 -9.5932286,6.5246189 -9.5932286,6.5380429 C -9.5932286,6.5514649 -9.5590463,6.5946289 -9.5172675,6.6339599 C -9.446157,6.7009049 -9.4444239,6.7078069 -9.4901251,6.7420569 C -9.5192256,6.7638649 -9.5319779,6.7967949 -9.5216975,6.8235849 C -9.4946766,6.8940009 -9.4451104,6.8755179 -9.3998732,6.7781579 C -9.307656,6.5796839 -9.1996445,6.6918559 -9.2070822,6.9783759 C -9.2127253,7.1957349 -9.2146901,7.1899059 -9.1229468,7.2279079 C -9.0519629,7.2573099 -9.0319457,7.2557999 -8.9900454,7.2178809 C -8.9494285,7.1811229 -8.9260186,7.1787849 -8.8575108,7.2046439 C -8.8114143,7.2220429 -8.7393896,7.2272859 -8.6960138,7.2163999 C -8.611287,7.1951349 -8.2819154,6.8924269 -8.1789386,6.7411839 C -8.144016,6.6898929 -8.1013557,6.6478429 -8.0841373,6.6477389 C -8.046447,6.6475119 -8.0198752,6.7369419 -8.0185363,6.8685279 C -8.017079,7.0117479 -7.9252145,7.1904809 -7.820111,7.2545859 C -7.7698531,7.2852389 -7.6610911,7.3300409 -7.5784165,7.3541459 C -7.4791077,7.3831009 -7.4041228,7.4265299 -7.3574397,7.4821279 C -7.318576,7.5284139 -7.2451856,7.6070389 -7.1943488,7.6568499 C -7.0869514,7.7620829 -7.0903565,7.7922859 -7.235126,8.0185979 C -7.3014218,8.1222349 -7.3266014,8.1912879 -7.3215419,8.2555819 C -7.3147612,8.3417339 -7.3191353,8.3463129 -7.4082175,8.3463129 C -7.5179754,8.3463129 -7.5443051,8.3912909 -7.5472477,8.5838169 C -7.5491091,8.7055959 -7.5537128,8.7126089 -7.6589239,8.7539369 C -7.7367159,8.7844939 -7.7823716,8.8257989 -7.8157685,8.8958329 C -7.8506735,8.9690289 -7.8939273,9.0064819 -7.9827151,9.0403899 C -8.0635614,9.0712659 -8.1077039,9.1066839 -8.1183873,9.1492509 C -8.1420621,9.2435789 -8.2112223,9.2899319 -8.3563364,9.3087299 C -8.4280584,9.3180209 -8.5674073,9.3621989 -8.6660007,9.4069029 C -8.810674,9.4725009 -8.8488511,9.5032699 -8.8638667,9.5663689 C -8.8937174,9.6918079 -8.9460384,9.7306309 -9.2663081,9.8649869 C -9.4328367,9.9348479 -9.6198894,10.028807 -9.6819797,10.073785 C -9.7440711,10.118763 -9.818281,10.155564 -9.846891,10.155564 C -9.875501,10.155564 -9.961,10.187027 -10.036888,10.225483 C -10.112778,10.263939 -10.238677,10.307504 -10.316665,10.322295 C -10.394653,10.337085 -10.499175,10.38024 -10.548938,10.418195 C -10.598699,10.45615 -10.702138,10.501683 -10.778801,10.519379 C -10.982921,10.566496 -11.043611,10.530494 -11.099243,10.32929 C -11.270966,9.7082319 -11.308588,9.6173819 -11.417348,9.5611409 C -11.503657,9.5165089 -11.622619,9.3426149 -11.596146,9.2997809 C -11.56673,9.2521839 -11.464591,9.2685479 -11.397463,9.3316119 C -11.223891,9.4946739 -11.354847,9.2451989 -11.61018,8.9263779 C -11.671015,8.8504169 -11.733022,8.7447619 -11.747974,8.6915899 C -11.766105,8.6271119 -11.851096,8.5200679 -12.003152,8.3701949 C -12.244895,8.1319249 -12.327822,7.9783069 -12.327822,7.7687559 C -12.327822,7.6273899 -12.49323,7.3170299 -12.62641,7.2085079 C -12.69698,7.1510039 -12.740958,7.0885779 -12.752875,7.0289959 C -12.769814,6.9442969 -13.160658,6.3142039 -13.270916,6.1938429 C -13.31581,6.1448359 -13.328742,6.1436619 -13.43553,6.1789049 L -13.551422,6.2171529 L -13.664703,6.0912339 C -13.831022,5.9063599 -13.965912,5.6242049 -13.979807,5.4321209 C -13.986794,5.3355139 -13.97954,5.2662359 -13.961252,5.2549329 C -13.944736,5.2447249 -13.867246,5.2287969 -13.789053,5.2195359 C -13.701989,5.2092239 -13.622269,5.1802549 -13.583382,5.1447979 C -13.492833,5.0622359 -13.285847,4.3920649 -13.288234,4.1891789 C -13.289217,4.1056219 -13.290552,3.9533549 -13.291201,3.8508069 C -13.29244,3.6549299 -13.29592,3.6483389 -13.375585,3.6909749 C -13.408656,3.7086739 -13.454006,3.7067639 -13.510938,3.6852749 C -13.585713,3.6570509 -13.604546,3.6602379 -13.659648,3.7104499 C -13.830766,3.8663809 -14.016662,3.8736179 -14.249495,3.7334129 C -14.45112,3.6120009 -14.522464,3.6088389 -14.561076,3.7196019 C -14.586558,3.7926999 -14.602748,3.8024689 -14.69841,3.8024689 C -14.7634,3.8024689 -14.857552,3.7741339 -14.933365,3.7317619 C -15.035486,3.6746849 -15.070769,3.6668849 -15.116388,3.6912999 C -15.153062,3.7109269 -15.189982,3.7124049 -15.221551,3.6955109 C -15.290927,3.6583809 -15.378247,3.5566509 -15.358065,3.5364689 C -15.329489,3.5078929 -15.44538,3.3089959 -15.518535,3.2610639 C -15.596724,3.2098329 -15.603642,3.1763729 -15.548924,3.1140899 C -15.495715,3.0535229 -15.522992,2.8975159 -15.59054,2.8760779 C -15.61944,2.8669049 -15.661332,2.8241139 -15.683634,2.7809869 C -15.705936,2.7378599 -15.739983,2.6969372 -15.759292,2.6900484 C -15.831671,2.6642278 -15.755335,2.6426395 -15.488844,2.6135643 C -15.073047,2.5681993 -15.021147,2.5545645 -15.019953,2.4903831 C -15.017765,2.3727296 -14.984379,2.3577761 -14.761565,2.374652 C -14.561803,2.3897819 -14.544962,2.3864374 -14.421203,2.3070526 C -14.349592,2.261118 -14.225293,2.2060438 -14.144982,2.184665 C -13.951779,2.1332353 -13.655985,2.1347102 -13.586256,2.1874508 C -13.556766,2.2097561 -13.508025,2.2280056 -13.477942,2.2280056 C -13.44786,2.2280056 -13.403623,2.2450083 -13.379638,2.2657896 C -13.355654,2.2865708 -13.225508,2.3318116 -13.090426,2.3663255 C -12.680869,2.4709691 -12.18686,2.4053749 -12.145571,2.2408686 C -12.11906,2.13524 -12.211138,1.9852035 -12.352133,1.9042863 C -12.700435,1.7043949 -12.782505,1.6169154 -12.653406,1.5831548 C -12.586104,1.5655551 -12.168019,1.7121068 -11.950087,1.8296895 C -11.834034,1.8923044 -11.794559,1.8996246 -11.644606,1.8863369 C -11.473918,1.8712117 -11.47124,1.8720839 -11.340762,1.985308 C -11.048887,2.2385877 -10.50316,2.544969 -10.214369,2.6176874 C -10.093513,2.6481196 -10.085599,2.6545687 -10.139564,2.6786485 C -10.179959,2.6966734 -10.204917,2.7385039 -10.215048,2.8051629 C -10.223372,2.8599349 -10.242243,2.9429209 -10.256983,2.9895759 C -10.32828,3.2152489 -10.270652,3.3425109 -10.049665,3.4474049 C -9.958143,3.4908459 -9.828479,3.5574329 -9.761522,3.5953739 C -9.6284197,3.6707979 -9.5294968,3.6797259 -9.3214077,3.6350989 C -9.0914789,3.5857879 -9.0875818,3.5786239 -9.1419913,3.3052699 C -9.1818777,3.1048819 -9.2021696,3.0580529 -9.2804882,2.9856539 C -9.3309577,2.9389989 -9.3722512,2.8821229 -9.3722512,2.8592639 C -9.3722512,2.8364039 -9.4016668,2.7900669 -9.4376189,2.7562909 C -9.4829761,2.7136802 -9.5081004,2.6517073 -9.5196902,2.553848 C -9.5297963,2.4685159 -9.5649512,2.3716054 -9.608701,2.3084752 C -9.6574297,2.2381593 -9.6750966,2.1855087 -9.6628793,2.147015 C -9.6322242,2.0504289 -9.6699005,1.9953893 -9.813266,1.9273242 C -9.906963,1.8828398 -9.986522,1.8148228 -10.062381,1.7143474 C -10.12368,1.6331571 -10.198573,1.5534893 -10.228808,1.5373071 C -10.299697,1.499369 -10.299318,1.435617 -10.228069,1.4130033 C -10.197426,1.403278 -10.154074,1.3515679 -10.131731,1.2980922 L -10.091106,1.2008641 L -9.918128,1.2103307 C -9.7537794,1.2193251 -9.7446862,1.2165165 -9.7358497,1.1540294 C -9.7229205,1.0626047 -9.7524255,0.9216391 -9.797351,0.8602011 C -9.82492,0.8224984 -9.872837,0.8078045 -9.975836,0.8054688 C -10.053276,0.8037124 -10.120446,0.7967781 -10.125104,0.790059 C -10.129761,0.7833404 -10.1798,0.7249795 -10.2363,0.6603692 C -10.311023,0.5749187 -10.339027,0.5176762 -10.339027,0.450382 C -10.339027,0.3960905 -10.367024,0.3190927 -10.406793,0.2640122 C -10.557829,0.0548248 -10.623071,-0.0738334 -10.63592,-0.1878262 C -10.652992,-0.3392921 -10.614946,-0.3630967 -10.302815,-0.3962433 C -10.178406,-0.4094544 -10.035109,-0.4350743 -9.984378,-0.4531763 C -9.871102,-0.4935956 -9.6099773,-0.4705297 -9.3067191,-0.3933172 C -9.1853196,-0.3624076 -9.0554141,-0.3453853 -9.0126332,-0.3547821 C -8.9590545,-0.3665494 -8.8802703,-0.3463434 -8.7507461,-0.2876141 C -8.5819361,-0.2110721 -8.5602955,-0.2072552 -8.5069595,-0.2446129 C -8.4747674,-0.2671614 -8.396781,-0.28561 -8.3336565,-0.28561 C -8.2001943,-0.28561 -8.1288344,-0.345468 -8.1750157,-0.41868 C -8.1908264,-0.4437453 -8.2646851,-0.4955309 -8.3391469,-0.5337587 C -8.4336073,-0.5822546 -8.4772806,-0.6226713 -8.4836267,-0.6674651 C -8.4886293,-0.7027752 -8.5417507,-0.7759592 -8.601675,-0.8300971 C -8.6737923,-0.8952511 -8.7056026,-0.9443595 -8.6957655,-0.975354 C -8.6875916,-1.0011078 -8.6784027,-1.0796442 -8.6753458,-1.14988 C -8.670934,-1.2512514 -8.6833991,-1.2920696 -8.7358019,-1.34785 C -8.7721099,-1.3864974 -8.817046,-1.4181183 -8.8356607,-1.4181183 C -8.8542754,-1.4181183 -8.9356762,-1.3683985 -9.016552,-1.3076299 C -9.0974272,-1.2468608 -9.1869135,-1.197141 -9.2154092,-1.197141 C -9.2752637,-1.197141 -9.3868747,-1.309407 -9.5063658,-1.4898063 C -9.5996565,-1.6306487 -9.5958613,-1.6766557 -9.4876605,-1.7165726 C -9.4469738,-1.7315825 -9.3743532,-1.7586468 -9.326282,-1.7767157 C -9.225922,-1.8144381 -9.1636935,-1.933805 -9.1938876,-2.0306749 C -9.2048913,-2.0659774 -9.247726,-2.138366 -9.2890759,-2.1915386 C -9.4090802,-2.3458542 -9.4200466,-2.381376 -9.4511016,-2.7163595 C -9.4875612,-3.1096384 -9.5475414,-3.3393236 -9.7324715,-3.7938248 C -9.811898,-3.9890303 -9.869799,-4.1672045 -9.86114,-4.1897674 C -9.852483,-4.2123306 -9.7156442,-4.2933776 -9.5570551,-4.369872 C -9.3747406,-4.4578104 -9.2141252,-4.5591455 -9.1202639,-4.6454511 L -8.9718161,-4.7819494 L -9.061545,-4.9068949 C -9.110896,-4.975615 -9.1512739,-5.0391309 -9.1512739,-5.0480415 C -9.1512739,-5.082061 -9.0446846,-5.0616654 -8.8750525,-4.9951871 C -8.6814007,-4.9192954 -8.5884245,-4.907411 -8.6049295,-4.9606594 C -8.614136,-4.9903617 -8.7535376,-5.0675692 -9.0109487,-5.1855332 C -9.047711,-5.2023803 -9.0896595,-5.2534542 -9.1041665,-5.2990308 C -9.1186746,-5.3446073 -9.1631761,-5.4170377 -9.2030589,-5.4599872 L -9.2755735,-5.5380772 L -9.2027278,-5.6009993 C -9.1091391,-5.6818381 -9.0684338,-5.7592271 -9.0683045,-5.8565634 C -9.0682475,-5.8993407 -9.042654,-5.9762449 -9.0114293,-6.0274618 C -8.9597576,-6.1122167 -8.9457616,-6.1191397 -8.8556494,-6.1045165 C -8.8011954,-6.0956799 -8.7291319,-6.0626055 -8.6955084,-6.0310178 C -8.6618853,-5.9994302 -8.5886552,-5.9661666 -8.532776,-5.9570985 C -8.3985125,-5.9353106 -8.3128234,-5.8294331 -8.3347708,-5.7124435 C -8.3491035,-5.6360423 -8.3408898,-5.6224626 -8.255803,-5.5818875 C -8.1783421,-5.5449492 -8.1407936,-5.4938283 -8.0520931,-5.3045463 C -7.9578366,-5.1034076 -7.9272115,-5.0636141 -7.8222295,-5.0058653 C -7.6586829,-4.9159007 -7.6450108,-4.8023349 -7.7727368,-4.5947537 C -7.8445918,-4.4779745 -7.8539343,-4.4464518 -7.8225735,-4.4265949 C -7.7608583,-4.3875181 -7.725064,-4.3963351 -7.5984115,-4.481812 C -7.5214017,-4.5337852 -7.4663683,-4.5976088 -7.4431163,-4.6619109 C -7.4094627,-4.7549779 -7.4117529,-4.7670368 -7.4780461,-4.8458215 C -7.5334261,-4.9116369 -7.5429523,-4.9414171 -7.521468,-4.9815615 C -7.4796374,-5.0597228 -7.4847482,-5.0642425 -7.6149661,-5.0642425 C -7.7203676,-5.0642425 -7.7453233,-5.0764823 -7.808321,-5.159077 C -7.848105,-5.211236 -7.8806551,-5.2901043 -7.8806551,-5.3343399 C -7.8806551,-5.421482 -7.9273087,-5.4741957 -8.0671046,-5.5450085 C -8.1823225,-5.6033715 -8.185188,-5.6860113 -8.0741848,-5.7491755 C -7.9493,-5.8202384 -7.9783271,-5.9481514 -8.1193377,-5.9481514 C -8.1870354,-5.9481514 -8.2286099,-5.9899445 -8.1866867,-6.0158546 C -8.1323667,-6.0494259 -7.8954958,-5.9086508 -7.8486823,-5.8149753 C -7.7830612,-5.6836634 -7.715007,-5.6165543 -7.6484909,-5.617564 C -7.5945077,-5.6183835 -7.5938677,-5.6209061 -7.6389611,-5.6551369 C -7.7014819,-5.7025969 -7.6989857,-5.7242643 -7.6198435,-5.8210539 C -7.5581743,-5.896475 -7.5457785,-5.9001124 -7.4062894,-5.8837182 C -7.324843,-5.8741457 -7.1589792,-5.8397503 -7.0377039,-5.807284 C -6.7371022,-5.7268109 -6.6652803,-5.7157251 -6.6652803,-5.7497998 C -6.6652803,-5.779636 -6.6796228,-5.7854609 -6.8818556,-5.8377575 C -7.0060436,-5.869872 -7.2574971,-6.0718761 -7.229558,-6.1170828 C -7.2212558,-6.1305158 -7.1188642,-6.141583 -7.0020213,-6.1416766 C -6.8660811,-6.1417855 -6.7606222,-6.156948 -6.7091656,-6.1837822 C -6.6447752,-6.2173614 -6.6101475,-6.2195778 -6.5353882,-6.194905 C -6.4415439,-6.1639337 -6.3614364,-6.1748054 -6.3614364,-6.2185127 C -6.3614364,-6.2314354 -6.4238496,-6.259004 -6.5001319,-6.2797764 C -6.6509134,-6.3208354 -6.6663258,-6.3652546 -6.5389154,-6.3915522 C -6.4944749,-6.4007248 -6.4332542,-6.421449 -6.4028696,-6.437606 C -6.3362956,-6.4730069 -5.9491512,-6.5757517 -5.7951825,-6.5988809 C -5.7344139,-6.6080096 -5.6349742,-6.6355761 -5.5742055,-6.6601401 C -5.4959655,-6.6917661 -5.3548775,-6.7070981 -5.0908175,-6.7126701 C -4.8857225,-6.7169971 -4.6470425,-6.7357641 -4.5604155,-6.7543741 C -4.4142215,-6.7857821 -4.4023235,-6.7942021 -4.3946835,-6.8716561 C -4.3824845,-6.9953301 -4.2928045,-7.0315621 -4.0411755,-7.0144771 C -3.9272345,-7.0067411 -3.7780745,-6.9805001 -3.7097095,-6.9561631 C -3.6367395,-6.9301861 -3.5489185,-6.9186471 -3.4970385,-6.9282201 C -3.4211585,-6.9422221 -3.4031885,-6.9340711 -3.3699115,-6.8705591 L -3.3311555,-6.7965911 L -2.9021155,-6.8022141 C -2.5862435,-6.8063551 -2.4485575,-6.7976351 -2.3801225,-6.7691581 C -2.3289975,-6.7478841 -2.2717505,-6.7356861 -2.2529065,-6.7420501 C -2.2340625,-6.7484141 -2.1857735,-6.7277651 -2.1455985,-6.6961631 C -2.1054235,-6.6645611 -2.0575105,-6.6387051 -2.0391255,-6.6387051 C -1.9866875,-6.6387051 -1.9084295,-6.5375118 -1.9188845,-6.4832243 C -1.9275585,-6.4381841 -2.2340665,-6.2363236 -2.4667135,-6.1224344 C -2.5574045,-6.0780378 -2.5593175,-6.074449 -2.4976225,-6.0644783 C -2.3704045,-6.0439183 -2.2447145,-6.0853514 -2.2175485,-6.1568034 C -2.2014625,-6.1991132 -2.1699985,-6.2243729 -2.1333825,-6.2243729 C -2.1012205,-6.2243729 -2.0433015,-6.2492328 -2.0046735,-6.2796172 C -1.9095665,-6.3544287 -1.7459075,-6.3530166 -1.6769225,-6.2767893 C -1.5679315,-6.1563557 -1.4975215,-6.1415064 -1.0354585,-6.1415064 C -0.6434665,-6.1415064 -0.5885395,-6.1357505 -0.5282925,-6.0883601 C -0.4729845,-6.0448551 -0.3940785,-6.0315907 -0.0933365,-6.0152422 L 0.2740545,-5.9952706 L 0.2554865,-6.0798083 C 0.2303815,-6.1941107 0.2875225,-6.2092905 0.5416605,-6.155831 C 0.6513355,-6.1327603 0.8073115,-6.1138843 0.8882745,-6.1138843 C 1.1306145,-6.1138843 1.3606655,-6.0254823 1.6079125,-5.8373474 C 1.8455285,-5.6565414 2.0685075,-5.538469 2.2182255,-5.514173 C 2.3105635,-5.4991887 2.3119195,-5.5004446 2.3119195,-5.6009528 L 2.3119195,-5.702937 L 2.4431245,-5.6807585 C 2.5820835,-5.6572693 2.6584025,-5.6556957 3.1751115,-5.6656667 C 3.4405195,-5.6707884 3.4996725,-5.6793853 3.4996725,-5.7128368 C 3.4996725,-5.7353356 3.4685965,-5.7615431 3.4306165,-5.7710756 C 3.3489975,-5.7915607 3.3393875,-5.8545246 3.4142535,-5.8782861 C 3.4432345,-5.8874842 3.4737215,-5.9126659 3.4820025,-5.9342452 C 3.4985655,-5.9774079 3.4851305,-5.9779759 4.1756475,-5.9049167 C 4.4031075,-5.8808505 4.6073005,-5.8510368 4.6294095,-5.8386642 C 4.6515185,-5.8262915 4.7416015,-5.8226965 4.8295935,-5.8306754 C 5.0253165,-5.8484229 5.3170165,-5.7952091 5.3917895,-5.728116 C 5.4221735,-5.7008523 5.5713335,-5.6498264 5.7232555,-5.6147252 C 5.9532855,-5.5615773 6.1103365,-5.5480141 6.6624085,-5.5336184 C 7.3751735,-5.5150325 7.5139315,-5.4911929 7.7006805,-5.3552358 C 7.8818255,-5.2233587 7.9064405,-5.2191317 8.5562225,-5.2083201 C 9.0988055,-5.1992922 9.1841015,-5.2035951 9.2156305,-5.2415853 C 9.2355475,-5.2655842 9.2845045,-5.2851732 9.3244225,-5.2851165 C 9.4029015,-5.2850048 9.576546,-5.1917753 9.576546,-5.1497519 C 9.576546,-5.1355668 9.635588,-5.1094882 9.707751,-5.0917995 C 10.052564,-5.0072785 10.115709,-5.0326807 9.865653,-5.1553199 C 9.731707,-5.2210128 9.657909,-5.292923 9.690741,-5.3257554 C 9.696533,-5.3315475 9.800616,-5.325649 9.922036,-5.3126476 C 10.043456,-5.2996461 10.335465,-5.2755358 10.570944,-5.2590691 C 10.816773,-5.2418787 11.169639,-5.1945288 11.399608,-5.1478734 C 11.916529,-5.0430022 12.918283,-4.7870422 13.234758,-4.6789703 C 13.37054,-4.6326028 13.527392,-4.5946659 13.583322,-4.5946659 C 13.725838,-4.5946659 14.140463,-4.5199837 14.360954,-4.4545991 C 14.622473,-4.3770487 14.796989,-4.2179881 14.672833,-4.1703446 C 14.603759,-4.1438384 14.626975,-4.0878963 14.742524,-4.0024094 C 14.932595,-3.8617902 14.79852,-3.8499937 14.300812,-3.9635458 C 14.172162,-3.9928977 13.998143,-4.0469929 13.914103,-4.0837574 C 13.816872,-4.1262914 13.665867,-4.1603531 13.498892,-4.1774139 C 13.354566,-4.1921606 13.205406,-4.2134357 13.167426,-4.224692 C 13.104812,-4.2432488 13.101975,-4.2407626 13.137025,-4.1980391 C 13.169202,-4.1588126 13.169782,-4.1330558 13.14048,-4.044271 C 13.12112,-3.985614 13.11338,-3.9245171 13.12328,-3.9084998 C 13.13318,-3.8924823 13.308752,-3.7908927 13.51344,-3.6827451 C 13.854215,-3.5026959 13.931256,-3.4383896 13.859394,-3.3939765 C 13.844981,-3.3850678 13.751734,-3.3907911 13.652181,-3.4066948 C 13.456304,-3.4379863 13.399816,-3.4200714 13.17016,-3.2538244 C 13.062796,-3.1761051 12.891204,-2.9299721 12.891204,-2.8536894 C 12.891204,-2.7727104 12.850089,-2.7668403 12.699275,-2.8262868 C 12.621886,-2.85679 12.490802,-2.889712 12.407974,-2.8994468 C 12.26469,-2.916287 12.253445,-2.9129345 12.176329,-2.8303807 L 12.095278,-2.7436154 L 12.008483,-2.7921373 C 11.92578,-2.8383715 11.919979,-2.8383768 11.885432,-2.7922494 C 11.859865,-2.7581079 11.825668,-2.748152 11.76941,-2.7584711 C 11.725537,-2.7665186 11.671112,-2.7608613 11.648467,-2.7458991 C 11.612366,-2.7220466 11.613216,-2.7086703 11.655373,-2.6373049 C 11.681816,-2.5925399 11.703452,-2.5191105 11.703452,-2.4741289 C 11.703452,-2.358788 11.798813,-2.2467829 11.897014,-2.2467829 C 12.024454,-2.2467829 12.105868,-2.2024877 12.166117,-2.1003703 C 12.200515,-2.0420699 12.280131,-1.9738404 12.370151,-1.9255132 C 12.53505,-1.8369866 12.582215,-1.7495842 12.465086,-1.7495842 C 12.351034,-1.7495842 12.377421,-1.6579479 12.530086,-1.5238437 C 12.702269,-1.3725956 12.714188,-1.3277909 12.58736,-1.3085135 C 12.45347,-1.2881621 12.44098,-1.18662 12.558515,-1.074013 C 12.656292,-0.980339 12.663847,-0.9485416 12.588333,-0.9485416 C 12.497561,-0.9485416 12.472132,-0.8604651 12.53368,-0.7592561 C 12.618195,-0.6202838 12.589388,-0.3684764 12.488976,-0.3684764 C 12.464497,-0.3684764 12.367856,-0.4405746 12.27422,-0.5286946 C 12.180586,-0.6168145 11.892664,-0.8765298 11.634396,-1.1058399 C 11.062849,-1.6133046 10.902409,-1.8031157 10.902409,-1.9718331 C 10.902409,-2.0044261 10.880657,-2.0680295 10.854071,-2.113174 C 10.807408,-2.1924078 10.807615,-2.1963117 10.860039,-2.2257312 C 10.999728,-2.3041234 11.03088,-2.3660738 11.049041,-2.6015768 C 11.062606,-2.7774867 11.084242,-2.8615537 11.143354,-2.9680418 L 11.220064,-3.1062305 L 11.143126,-3.16291 C 11.10081,-3.1940835 11.041515,-3.2679523 11.011359,-3.3270624 C 10.971514,-3.4051657 10.939071,-3.4345355 10.892641,-3.4345355 C 10.789341,-3.4345355 10.785483,-3.4023739 10.877407,-3.3075332 C 10.961988,-3.2202676 10.966101,-3.1583139 10.887315,-3.1583139 C 10.865614,-3.1583139 10.816472,-3.108594 10.77811,-3.0478253 C 10.739748,-2.9870566 10.70493,-2.9373367 10.700737,-2.9373367 C 10.654977,-2.9373367 10.454422,-3.0702946 10.383274,-3.1477984 L 10.292281,-3.2469192 L 10.073757,-3.2369954 C 9.953568,-3.2315372 9.841525,-3.2133649 9.824773,-3.1966123 C 9.785841,-3.1576809 9.71232,-2.8098339 9.732118,-2.758241 C 9.740358,-2.7367673 9.808165,-2.6989152 9.8828,-2.6741255 C 10.038961,-2.6222572 10.060025,-2.5599778 9.928729,-2.5383253 C 9.656306,-2.493399 9.3856795,-2.4685388 9.3438355,-2.4845958 C 9.3175765,-2.4946724 9.2860755,-2.5292617 9.2738335,-2.5614611 C 9.2555855,-2.6094554 9.2127225,-2.626187 9.0359705,-2.6543094 C 8.8350705,-2.686274 8.8164805,-2.6850083 8.7634065,-2.6357531 C 8.7157215,-2.5914985 8.6614775,-2.5824202 8.4302265,-2.5799917 C 8.2783045,-2.5783959 8.0545645,-2.5847341 7.9330275,-2.5940765 C 7.6312095,-2.6172763 7.5342215,-2.5883761 7.4569995,-2.4522318 C 7.4230665,-2.3924075 7.3950995,-2.3099357 7.3948505,-2.268961 C 7.3945995,-2.2279866 7.3633205,-2.1360178 7.3253405,-2.0645866 C 7.2873595,-1.9931552 7.2562845,-1.9012151 7.2562845,-1.8602754 C 7.2562845,-1.8187946 7.2054065,-1.7100708 7.1413655,-1.6146967 C 7.0659845,-1.502438 7.0357985,-1.4342007 7.0536295,-1.4163692 C 7.0685815,-1.4014178 7.1533205,-1.377384 7.2419395,-1.3629608 C 7.3420435,-1.3466684 7.4275345,-1.3137489 7.4676765,-1.2760379 C 7.5458075,-1.2026366 7.5799265,-1.2262436 7.5440555,-1.3288851 C 7.5236685,-1.3872232 7.4970965,-1.4062962 7.4267475,-1.4130878 C 7.3064315,-1.4247035 7.3276745,-1.4871736 7.4519415,-1.4871736 C 7.5310835,-1.4871736 7.5536605,-1.4724715 7.5918075,-1.3960924 C 7.6578005,-1.2639572 7.7846415,-1.0866525 7.8131755,-1.0866525 C 7.8266805,-1.0866525 7.8450295,-1.1231478 7.8539505,-1.1677528 C 7.8628725,-1.2123583 7.8878545,-1.2556395 7.9094665,-1.2639328 C 8.0453495,-1.3160759 8.6406565,-1.0367418 8.7536805,-0.8678045 C 8.8375595,-0.7424303 8.9135005,-0.7139046 8.8422405,-0.8345389 C 8.8141755,-0.8820482 8.7798755,-0.9209196 8.7660175,-0.9209196 C 8.7521585,-0.9209196 8.7485385,-0.9691884 8.7579725,-1.028183 C 8.7704045,-1.105932 8.7637755,-1.144865 8.7338805,-1.1696763 C 8.6849485,-1.2102864 8.6799645,-1.2523854 8.7240895,-1.2523854 C 8.7794195,-1.2523854 9.1309935,-0.94703 9.2284735,-0.8143091 C 9.3274915,-0.6794936 9.792553,-0.2183085 10.108112,0.0579992 C 10.210572,0.1477136 10.29018,0.2253384 10.28502,0.2304983 C 10.279859,0.2356587 10.216875,0.2138878 10.145056,0.1821188 C 9.926907,0.0856207 9.88623,0.1457622 10.00179,0.393941 C 10.048584,0.4944371 10.113085,0.5697102 10.226647,0.6563516 C 10.468478,0.8408554 10.558861,0.9234327 10.539817,0.9424768 C 10.530314,0.9519797 10.47676,0.9379247 10.420809,0.9112433 C 10.336093,0.8708447 10.31516,0.8690728 10.295645,0.9006488 C 10.282756,0.921503 10.278123,0.9539735 10.28535,0.9728049 C 10.292576,0.9916358 10.286344,1.0145485 10.271501,1.0237224 C 10.232488,1.0478338 10.123058,0.9072712 9.989096,0.6609719 C 9.9249,0.5429449 9.844801,0.4153022 9.811096,0.3773216 C 9.777391,0.3393411 9.67939,0.2026115 9.593317,0.0734778 C 9.5072425,-0.0556558 9.3958145,-0.2172454 9.3456985,-0.28561 C 9.2309245,-0.4421778 9.0262645,-0.602665 8.9889555,-0.5653559 C 8.9433255,-0.5197256 8.9939225,-0.3484365 9.0903455,-0.2221151 C 9.1407255,-0.1561142 9.2275415,-0.0097782 9.2832705,0.103076 L 9.3845955,0.3082664 L 9.3570465,0.5844878 C 9.3418945,0.7364094 9.3246465,0.9166442 9.3187185,0.9850088 C 9.3027515,1.1691422 9.1704945,1.6418323 9.1055325,1.746943 C 8.9927555,1.9294199 8.7930115,1.9965822 8.6244685,1.9086966 C 8.5051455,1.8464769 8.4364005,1.8772903 8.3211255,2.0446642 C 8.2247165,2.1846448 8.2203565,2.1999625 8.2482875,2.3005538 C 8.2953395,2.4700095 8.2865035,2.4988653 8.1401935,2.6535661 C 8.0642325,2.7338839 8.0020835,2.8200109 8.0020835,2.8449599 C 8.0020835,2.8699089 8.0883565,2.9530719 8.1938015,3.0297659 C 8.4603575,3.2236429 8.7278485,3.5214659 8.8440615,3.7537609 C 8.9987265,4.0629189 8.9775265,4.1225519 8.6688665,4.2465629 C 8.3887235,4.3591159 8.3150445,4.3550129 8.2585045,4.2237059 C 8.2339745,4.1667359 8.2155945,4.0695789 8.2176635,4.0078029 C 8.2206925,3.9173029 8.2009595,3.8682469 8.1160955,3.7553039 C 8.0351885,3.6476249 8.0135425,3.5962209 8.0227365,3.5335859 C 8.0331435,3.4626709 8.0221365,3.4460839 7.9382575,3.4062799 C 7.8852125,3.3811089 7.8021035,3.3605139 7.7535705,3.3605139 C 7.7050375,3.3605139 7.6308185,3.3401279 7.5886365,3.3152109 C 7.5224875,3.2761349 7.5095605,3.2470959 7.4946005,3.1039659 C 7.4850615,3.0126979 7.4634825,2.9214279 7.4466475,2.9011429 C 7.3812935,2.8223959 7.0811665,2.7812209 6.9473335,2.8326409 C 6.9121625,2.8461529 6.8245585,2.9091699 6.7526585,2.9726779 C 6.6187035,3.0909969 6.5594265,3.1005579 6.5858315,2.9995839 C 6.5940345,2.9682169 6.5843145,2.9118519 6.5642335,2.8743289 C 6.5343515,2.8184949 6.5341345,2.7883699 6.5630375,2.7084422 C 6.5939565,2.6229353 6.5923515,2.6041478 6.5501385,2.5575035 C 6.4631595,2.4613928 6.3661335,2.4891312 6.2316835,2.6485443 C 6.1647385,2.7279193 6.0846585,2.8304659 6.0537285,2.8764279 C 6.0145075,2.9347089 5.9685405,2.9641719 5.9018065,2.9738039 C 5.7030595,3.0024909 5.8046925,3.1963059 6.0392625,3.2359369 C 6.1530515,3.2551609 6.2157635,3.3074289 6.2466495,3.4087889 C 6.2574375,3.4441899 6.2965125,3.4786399 6.3375645,3.4889439 C 6.3946815,3.5032789 6.4216275,3.4918769 6.4679655,3.4337639 C 6.5333905,3.3517129 6.5806785,3.3461079 6.8264785,3.3912709 C 7.0735145,3.4366609 7.1181745,3.4591869 7.1181745,3.5384009 C 7.1181745,3.5944789 7.0989725,3.6121549 7.0128665,3.6353409 C 6.8785405,3.6715109 6.7815545,3.7732589 6.6339625,4.0328449 C 6.5743795,4.1376389 6.5910985,4.1683689 6.7699305,4.2827669 C 6.8542845,4.3367269 6.9688075,4.4445479 7.0270165,4.5248059 C 7.0847495,4.6044079 7.2158875,4.7518619 7.3184345,4.8524819 C 7.5017215,5.0323219 7.5445235,5.0942089 7.4643355,5.0634379 C 7.3783325,5.0304359 7.3959885,5.1035119 7.4869895,5.1572049 C 7.5396945,5.1883019 7.5897175,5.2317269 7.5981515,5.2537069 C 7.6128345,5.2919689 7.5187205,5.4045529 7.4720535,5.4045529 C 7.4597255,5.4045529 7.4496395,5.4201719 7.4496395,5.4392609 C 7.4496395,5.4583509 7.5019895,5.4903069 7.5659715,5.5102759 C 7.6699355,5.5427229 7.6860065,5.5415189 7.7171335,5.4989509 C 7.7499525,5.4540679 7.7530715,5.4542059 7.7711615,5.5013469 C 7.7817205,5.5288629 7.7758465,5.6216369 7.7581105,5.7075109 C 7.7403735,5.7933839 7.7258615,5.9137969 7.7258615,5.9750949 C 7.7258615,6.0510989 7.7084625,6.1022909 7.6711575,6.1360519 C 7.6410695,6.1632799 7.6081285,6.2299309 7.5979545,6.2841649 C 7.5877805,6.3383989 7.5483415,6.4507329 7.5103135,6.5337979 C 7.4516965,6.6618339 7.4458505,6.6972199 7.4719075,6.7662549 C 7.5001655,6.8411189 7.4949385,6.8551689 7.4070865,6.9404849 C 7.3545305,6.9915249 7.3115285,7.0485509 7.3115285,7.0672089 C 7.3115285,7.1194549 6.8010905,7.6047139 6.7274945,7.6224339 C 6.5140985,7.6738119 6.4549865,7.6957279 6.3797415,7.7513579 C 6.3117905,7.8015969 6.2854475,7.8074509 6.2390525,7.7826209 C 6.1945455,7.7588009 6.1770815,7.7607889 6.1597785,7.7916449 C 6.1125795,7.8758139 5.9422185,7.9655769 5.8541945,7.9526579 C 5.8019135,7.9449849 5.7436845,7.9573709 5.7051495,7.9843609 C 5.6703665,8.0087249 5.6213355,8.0286579 5.5961915,8.0286579 C 5.5282215,8.0286579 5.4796355,8.1021119 5.4623845,8.2309469 C 5.4423075,8.3808849 5.3727205,8.3981479 5.2959545,8.2722349 C 5.2652205,8.2218249 5.2400275,8.1523049 5.2399715,8.1177459 C 5.2398455,8.0413529 5.1490965,8.0010359 4.9772665,8.0010359 C 4.8720215,8.0010359 4.8364005,8.0185129 4.7020845,8.1360499 C 4.4300375,8.3741119 4.3223595,8.5719979 4.3809755,8.7261699 C 4.4297855,8.8545509 4.7365485,9.2268019 4.9101655,9.3683319 C 5.1489915,9.5630209 5.2785615,9.7368489 5.3581055,9.9692779 C 5.4402435,10.209289 5.4976345,10.430228 5.4925955,10.48703 C 5.4844515,10.578839 5.4577085,10.780491 5.4465535,10.8342 C 5.4342145,10.893606 5.1103775,11.130472 4.9956525,11.164005 C 4.9586945,11.174807 4.9149085,11.221374 4.8934755,11.27267 C 4.8548285,11.365165 4.8241225,11.39791 4.5939115,11.592125 C 4.5000055,11.671349 4.4501805,11.697186 4.4300775,11.677084 C 4.4141895,11.661195 4.4028055,11.561049 4.4047805,11.454537 C 4.4079095,11.285764 4.4011235,11.257 4.3519695,11.230693 C 4.3209495,11.214091 4.2683645,11.207336 4.2351145,11.215681 C 4.1936565,11.226087 4.1640125,11.213806 4.1407755,11.176597 C 4.1221385,11.146755 4.0902775,11.122339 4.0699735,11.122339 C 4.0171655,11.122339 3.9542865,11.042273 3.9111275,10.920074 C 3.8595655,10.774086 3.6258365,10.577472 3.4752205,10.553388 C 3.3593695,10.534863 3.3523875,10.525848 3.3277915,10.363047 C 3.3186205,10.30234 3.2575775,10.280656 3.2000945,10.317687 C 3.1786395,10.331508 3.1530895,10.427832 3.1396565,10.545535 C 3.1268565,10.657683 3.0971535,10.830235 3.0736485,10.928984 C 3.0167535,11.16801 3.0158805,11.422461 3.0718805,11.443951 C 3.0948625,11.45277 3.1308645,11.445712 3.1518855,11.428266 C 3.1831905,11.402284 3.1924345,11.417966 3.2029785,11.514948 C 3.2172485,11.646185 3.3670505,12.018874 3.4362795,12.095372 C 3.4606625,12.122315 3.5051005,12.144359 3.5350315,12.144359 C 3.6030695,12.144359 4.0364095,12.566481 4.0948945,12.689729 C 4.1184305,12.739328 4.1451925,12.888617 4.1543655,13.021483 C 4.1686945,13.229049 4.1859935,13.292219 4.2772535,13.470222 C 4.3356695,13.584164 4.3834905,13.695054 4.3835225,13.716646 C 4.3835545,13.738238 4.4043315,13.778833 4.4296925,13.806858 C 4.4728955,13.854596 4.4724595,13.860341 4.4227875,13.897926 C 4.3936275,13.91999 4.3635545,13.938226 4.3559585,13.938452 C 4.3483625,13.938678 4.2843935,13.884678 4.2138055,13.818452 z M -9.1577716,2.4766055 C -9.1534896,2.4538169 -9.2060967,2.3741 -9.274677,2.2994571 C -9.3967077,2.166638 -9.4005525,2.1648138 -9.4548652,2.2139662 C -9.5219292,2.2746587 -9.5251062,2.3327744 -9.4659734,2.417198 C -9.3884722,2.5278463 -9.1751281,2.5689691 -9.1577716,2.4766055 z M -8.0416575,1.5193598 C -8.0138746,1.4942169 -7.9911435,1.4514226 -7.9911435,1.424261 C -7.9911435,1.349719 -8.0985098,1.1830781 -8.1588821,1.1639161 C -8.1881637,1.1546227 -8.2121209,1.1354266 -8.2121209,1.1212584 C -8.2121209,1.1070902 -8.2263357,1.0954977 -8.2437098,1.0954977 C -8.2838248,1.0954977 -8.2526234,1.4748386 -8.208095,1.5284918 C -8.1669717,1.5780425 -8.1025978,1.5745101 -8.0416575,1.5193598 z M -4.9803295,1.111428 C -4.9803295,1.089805 -4.9492545,1.0351834 -4.9112735,0.9900466 C -4.8732925,0.9449093 -4.8422185,0.8949695 -4.8422185,0.8790688 C -4.8422185,0.8106669 -4.9049615,0.8214616 -4.9810935,0.9029608 C -5.0710035,0.9992091 -5.0958745,1.1507417 -5.0217625,1.1507417 C -4.9989735,1.1507417 -4.9803295,1.133051 -4.9803295,1.111428 z M 1.2042345,-0.5373728 C 1.2687155,-0.559851 1.2968575,-0.5897135 1.3085215,-0.6480356 C 1.3204245,-0.7075486 1.3579855,-0.7461396 1.4558495,-0.7994037 C 1.6110895,-0.8838962 1.6759675,-0.9794285 1.6221465,-1.0442778 C 1.5940255,-1.0781621 1.5938805,-1.0949682 1.6214225,-1.128154 C 1.6422615,-1.1532639 1.6491295,-1.2033402 1.6388095,-1.254938 C 1.6120035,-1.3889666 1.5148585,-1.5897825 1.4821085,-1.5788652 C 1.4643535,-1.5729469 1.4502785,-1.4675547 1.4471145,-1.3168379 C 1.4429975,-1.1207179 1.4310835,-1.0528583 1.3934825,-1.0113567 C 1.3668965,-0.982012 1.3451435,-0.9414247 1.3451435,-0.9211628 C 1.3451435,-0.8478422 1.1757965,-0.6222812 1.0959025,-0.5891879 C 1.0510655,-0.5706156 1.0211705,-0.5444329 1.0294705,-0.5310034 C 1.0495745,-0.4984745 1.0976795,-0.5002278 1.2042345,-0.5373728 z M -6.9829348,-4.9537539 C -6.9923244,-4.968946 -7.0124363,-4.981376 -7.0276288,-4.981376 C -7.0428208,-4.981376 -7.0475689,-4.968946 -7.0381793,-4.9537539 C -7.0287902,-4.9385617 -7.0086778,-4.9261317 -6.9934858,-4.9261317 C -6.9782938,-4.9261317 -6.9735457,-4.9385617 -6.9829348,-4.9537539 z M -1.7466145,12.399864 C -1.7902265,12.364397 -1.8162935,12.29268 -1.8444995,12.130548 C -1.8823485,11.912989 -1.8843975,11.572449 -1.8482105,11.513896 C -1.8380365,11.497435 -1.8373165,11.453677 -1.8466075,11.416655 C -1.8561675,11.378566 -1.8500115,11.341006 -1.8324265,11.330138 C -1.7096215,11.25424 -1.3350355,11.851156 -1.3344745,12.123642 C -1.3341705,12.271807 -1.3868585,12.34399 -1.5429045,12.40919 C -1.6618025,12.458869 -1.6747875,12.458274 -1.7466145,12.399864 z M 9.624473,5.2369419 C 9.597661,5.2210199 9.537035,5.1310269 9.4897505,5.0369569 C 9.4424645,4.9428879 9.3532995,4.8190569 9.2916045,4.7617789 L 9.1794315,4.6576359 L 9.2918115,4.5408019 C 9.3536195,4.4765429 9.4087885,4.4102259 9.4144075,4.3934309 C 9.4200265,4.3766349 9.4992035,4.2820229 9.590357,4.1831819 L 9.75609,4.0034689 L 10.032312,3.9718399 C 10.184233,3.9544439 10.333393,3.9434009 10.363777,3.9472999 C 10.407756,3.9529449 10.417444,3.9403849 10.411285,3.8857079 C 10.407029,3.8479329 10.424942,3.7772969 10.451092,3.7287399 C 10.490491,3.6555799 10.49294,3.6279469 10.465385,3.5674689 C 10.447095,3.5273279 10.439238,3.4829869 10.447923,3.4689329 C 10.476082,3.4233709 10.543322,3.4419149 10.543322,3.4952429 C 10.543322,3.6783369 10.765335,3.5715189 10.852051,3.3467029 C 10.931237,3.1414099 10.912124,2.8914989 10.809006,2.7838659 C 10.748232,2.7204314 10.728895,2.6693127 10.717399,2.5416933 C 10.704893,2.4028591 10.71082,2.3727224 10.759206,2.3290993 C 10.793114,2.298529 10.83644,2.2848905 10.867912,2.2948792 C 10.913083,2.3092161 11.287208,2.7210139 11.353975,2.8298869 C 11.366858,2.8508939 11.387446,2.9384809 11.399726,3.0245259 C 11.418346,3.1549919 11.414465,3.1868949 11.376352,3.2166509 C 11.334264,3.2495109 11.335594,3.2609209 11.393187,3.3609919 C 11.427582,3.4207539 11.463209,3.5289979 11.472356,3.6015319 C 11.481504,3.6740669 11.512709,3.7750739 11.5417,3.8259929 C 11.633814,3.9877719 11.555049,4.2023409 11.428425,4.1345739 C 11.364188,4.1001949 11.316742,4.1175259 11.316742,4.1753679 C 11.316742,4.2318429 11.264703,4.2538479 11.219624,4.2164359 C 11.188675,4.1907499 11.170649,4.1932139 11.135995,4.2278689 C 11.086105,4.2777579 10.968217,4.2851959 10.862774,4.2451069 C 10.789623,4.2172949 10.769817,4.2388929 10.82128,4.2903559 C 10.842012,4.3110879 10.829835,4.3503729 10.779847,4.4240349 C 10.740911,4.4814099 10.709055,4.5390489 10.709055,4.5521219 C 10.709055,4.6043589 10.595128,4.5711839 10.506108,4.4930219 C 10.392707,4.3934539 10.377589,4.3911799 10.377589,4.4736869 C 10.377589,4.5528419 10.329075,4.6035109 10.253289,4.6035109 C 10.182754,4.6035109 10.128989,4.6529859 10.128989,4.7178939 C 10.128989,4.7972079 10.073445,4.8070329 9.986877,4.7430319 C 9.863871,4.6520889 9.843333,4.6767579 9.848845,4.9088229 C 9.855844,5.2034729 9.772747,5.3249919 9.624473,5.2369419 z M 10.528896,2.2268194 C 10.504991,2.1805899 10.453546,2.1306435 10.414575,2.1158265 C 10.354346,2.0929278 10.346612,2.0775697 10.363006,2.0134302 C 10.373613,1.9719287 10.381795,1.9045621 10.381187,1.8637269 C 10.380286,1.8032315 10.393919,1.7878837 10.454796,1.7808604 C 10.522214,1.7730818 10.52862,1.7627993 10.520393,1.6755629 C 10.509148,1.5563305 10.397648,1.3585136 10.308916,1.3003742 C 10.231537,1.2496745 10.245364,1.1783642 10.332574,1.1783642 C 10.365334,1.1783642 10.45927,1.2235745 10.541323,1.2788314 C 10.705678,1.3895148 10.970385,1.5159097 11.129044,1.5594625 C 11.209392,1.5815184 11.238308,1.5792044 11.263631,1.5486916 C 11.308501,1.4946277 11.331513,1.4999495 11.363575,1.571804 C 11.390774,1.6327582 11.391992,1.632303 11.437561,1.544182 C 11.463044,1.4949039 11.496004,1.4545855 11.510806,1.4545855 C 11.544495,1.4545855 11.54445,1.4729136 11.510471,1.5913923 C 11.489317,1.6651511 11.492663,1.7008088 11.52543,1.7508178 C 11.580005,1.8341101 11.560956,1.8605805 11.419159,1.8984901 C 11.272306,1.9377511 11.233875,1.9695593 11.233875,2.0518438 C 11.233875,2.1322669 11.175587,2.1367951 10.970905,2.0722748 C 10.873541,2.0415835 10.792805,2.0335276 10.719878,2.0472276 L 10.612377,2.0674222 L 10.693909,2.1324774 C 10.773942,2.196337 10.774498,2.198574 10.724155,2.2542023 C 10.651278,2.3347315 10.579494,2.3246642 10.528896,2.2268194 z M 3.3117165,-6.0515083 C 3.1505665,-6.0606196 3.1381985,-6.0658909 3.1459835,-6.122147 C 3.1527095,-6.1707609 3.1388505,-6.1847222 3.0768025,-6.1918373 C 3.0073535,-6.1998012 2.9484005,-6.2623742 2.9802965,-6.2942699 C 2.9870445,-6.3010185 3.0628495,-6.2818375 3.1487515,-6.2516454 C 3.2346535,-6.2214533 3.3394295,-6.1959914 3.3815875,-6.1950632 C 3.4941315,-6.1925855 3.7558745,-6.1048867 3.7690945,-6.0652266 C 3.7807545,-6.030245 3.7200175,-6.0284232 3.3117165,-6.0515083 z " /> 
</svg>
