<?xml version="1.0" encoding="UTF-8" standalone="no"?>
<svg xmlns="http://www.w3.org/2000/svg" version="1.0"  viewBox="-18 -16 36 37">
  <defs>
    <clipPath id="clip_white">
      <path d="M 0,0 L -10,-5 L -10,5 L 0,0 z M 0,0 L 0.1,-10 L 8.1,-10 L 0,0 z " />
    </clipPath>
    <clipPath id="clip_color">
      <path d="M 0,0 L -10,-10 L -10,10 L 0,0 z M 0,0 L 0,-10 L 10,-10 L 0,0 z " />
    </clipPath>
  </defs>
  <path d="M 4.1016951 -1.7372881 A 7.0847459 7.0508475 0 1 1  -10.067797,-1.7372881 A 7.0847459 7.0508475 0 1 1  4.1016951 -1.7372881 z" transform="matrix(2.477719,0,0,2.477719,7.391162,6.804512)" style="fill:#CCC; stroke:#999; stroke-width:0.36;" />
  <path id="africa" style="fill:#E8E8E8; stroke:#666666; stroke-width:0.3px" d="M 1.1898282,16.42385 C 1.1650683,16.410251 1.1144237,16.3859 1.0772845,16.369739 C 1.0401446,16.353578 1.0097579,16.329512 1.0097579,16.31626 C 1.0097579,16.281766 0.92510764,16.231047 0.87833794,16.237519 C 0.84507154,16.242124 0.83869174,16.234312 0.83869174,16.188985 C 0.83869174,16.146969 0.83068864,16.134964 0.80267734,16.134964 C 0.78260134,16.134964 0.75879744,16.152893 0.74888824,16.175479 C 0.72710694,16.225127 0.71846874,16.22587 0.69015404,16.180531 C 0.67320284,16.153387 0.67269064,16.124769 0.68797214,16.058569 C 0.70702294,15.976034 0.70536414,15.968258 0.65176714,15.888844 C 0.62087394,15.843069 0.59559754,15.800385 0.59559754,15.793993 C 0.59559754,15.7876 0.57873874,15.759566 0.55813464,15.731698 C 0.50432004,15.658912 0.51637624,15.578609 0.58225644,15.571033 C 0.72744454,15.554337 0.70289704,15.241714 0.54170074,15.054545 C 0.52464194,15.034736 0.48817144,14.973963 0.46065624,14.919492 C 0.43313964,14.865021 0.39037224,14.780872 0.36561664,14.732496 C 0.34086104,14.684121 0.31420374,14.619296 0.30637824,14.588441 C 0.26812444,14.437614 0.16388574,14.177942 0.12125654,14.127282 C 0.094932344,14.095996 0.073394744,14.062946 0.073394744,14.053836 C 0.073394744,14.044727 0.010595044,13.973495 -0.066159856,13.895542 C -0.22800366,13.731176 -0.29394286,13.630969 -0.32273776,13.505619 C -0.33407296,13.456278 -0.35567386,13.393126 -0.37074066,13.36528 C -0.38583356,13.337385 -0.39341826,13.295859 -0.38763136,13.272803 C -0.38110306,13.246792 -0.38728356,13.222528 -0.40396486,13.208684 C -0.41872456,13.196433 -0.43080116,13.158509 -0.43080116,13.124408 C -0.43080116,13.090306 -0.43870816,13.047629 -0.44837296,13.029572 C -0.45803766,13.011512 -0.46972716,12.910439 -0.47435006,12.804963 C -0.48089216,12.655709 -0.49066016,12.60037 -0.51840746,12.55537 C -0.57788666,12.458908 -0.60569936,12.357808 -0.58900796,12.298738 C -0.58020386,12.267582 -0.58241056,12.183612 -0.59432126,12.096541 C -0.61013086,11.980969 -0.60976926,11.941697 -0.59270536,11.921137 C -0.56408506,11.886652 -0.58570996,11.73387 -0.62113506,11.720276 C -0.63529746,11.714841 -0.64688516,11.703564 -0.64688516,11.695216 C -0.64688516,11.686869 -0.67119466,11.644018 -0.70090636,11.599995 C -0.73061796,11.555972 -0.75492676,11.515455 -0.75492676,11.50996 C -0.75492676,11.504464 -0.78064121,11.461868 -0.81206981,11.415299 C -0.89268281,11.295855 -0.98889671,11.099987 -0.98896221,11.055192 C -0.98899281,11.034395 -1.0133271,10.983821 -1.0430387,10.942804 C -1.0727503,10.901788 -1.0970598,10.862933 -1.0970598,10.856459 C -1.0970598,10.842996 -1.2127363,10.607061 -1.2459424,10.552796 C -1.2580641,10.532989 -1.2965477,10.480318 -1.3314627,10.435752 C -1.3663778,10.391184 -1.4183662,10.306101 -1.4469923,10.246678 C -1.4916783,10.153919 -1.4985798,10.119534 -1.4957889,10.003584 C -1.4940006,9.9293048 -1.487903,9.8537526 -1.4822376,9.8356919 C -1.4765722,9.8176291 -1.4817618,9.7791316 -1.49377,9.7501425 C -1.51105,9.7084256 -1.5108754,9.6917349 -1.4929333,9.6701158 C -1.4776112,9.651655 -1.473403,9.6081753 -1.4799495,9.5359778 C -1.4887914,9.4384667 -1.4859685,9.4267546 -1.447562,9.4015902 C -1.4169104,9.3815069 -1.4024736,9.3507076 -1.3943862,9.288148 C -1.3882806,9.2409155 -1.3704637,9.1739113 -1.354793,9.139248 C -1.3181719,9.0582399 -1.295292,8.9705048 -1.2846974,8.8704611 C -1.2800542,8.8266191 -1.269074,8.7820517 -1.2602969,8.7714229 C -1.2515198,8.7607942 -1.2385607,8.7196848 -1.2314991,8.6800698 C -1.2244375,8.6404541 -1.2047646,8.5918357 -1.1877829,8.5720275 C -1.1708012,8.55222 -1.1396119,8.5076525 -1.1184745,8.4729892 C -1.097337,8.4383259 -1.0286165,8.3596707 -0.96576211,8.2981995 C -0.85500241,8.189877 -0.79918491,8.0872163 -0.82064391,8.0312948 C -0.82577021,8.0179356 -0.82043001,7.9610777 -0.80877691,7.904943 C -0.79344821,7.831107 -0.79303201,7.7974368 -0.80727161,7.7831972 C -0.81809751,7.7723713 -0.82695471,7.7489981 -0.82695471,7.7312569 C -0.82695471,7.7135156 -0.85400061,7.6635694 -0.88705531,7.6202643 C -0.92087321,7.575961 -0.96938021,7.4732086 -0.99797581,7.3853019 C -1.0259267,7.2993763 -1.0556034,7.2248666 -1.0639244,7.2197243 C -1.0943796,7.2009019 -1.0772232,7.1476141 -1.0158538,7.0704118 C -0.98128661,7.0269263 -0.95300391,6.9771234 -0.95300391,6.9597379 C -0.95300391,6.9423517 -0.99351961,6.8413615 -1.0430387,6.7353148 C -1.0925585,6.6292674 -1.1330742,6.5249319 -1.1330742,6.5034569 C -1.1330742,6.4819818 -1.1565558,6.4359237 -1.1852569,6.4011054 C -1.2745656,6.2927575 -1.3174567,6.2039922 -1.2940995,6.1758478 C -1.2783728,6.1568981 -1.2823729,6.140099 -1.3113999,6.103197 C -1.3351347,6.0730227 -1.3491574,6.0290147 -1.3491574,5.984702 C -1.3491574,5.9107198 -1.3821881,5.8297851 -1.4278447,5.7918937 C -1.4427165,5.7795509 -1.4599608,5.7463405 -1.4661654,5.718092 C -1.4768523,5.6694343 -1.6349165,5.5018356 -1.6701189,5.5018356 C -1.6791311,5.5018356 -1.7090886,5.4673971 -1.7366903,5.4253062 C -1.7642928,5.3832147 -1.8014465,5.33257 -1.8192546,5.3127625 C -1.9036924,5.2188441 -1.9999667,5.1251279 -2.0932653,5.0460325 C -2.1494865,4.9983701 -2.1954865,4.9481845 -2.1954865,4.9345103 C -2.1954865,4.9208353 -2.2100367,4.8990583 -2.2278202,4.8861174 C -2.2625912,4.860814 -2.3215357,4.7473202 -2.3215357,4.7056738 C -2.3215357,4.6916918 -2.3458445,4.6569623 -2.3755561,4.6284963 C -2.4052677,4.600031 -2.4295773,4.5632963 -2.4295773,4.5468625 C -2.4295773,4.5304293 -2.4424804,4.4911199 -2.45825,4.4595079 C -2.4972575,4.3813169 -2.4816508,4.347077 -2.4132402,4.3607586 C -2.3664254,4.3701214 -2.3547701,4.3637146 -2.322587,4.3109266 C -2.292847,4.2621445 -2.2856428,4.2198696 -2.285589,4.0938095 C -2.2855293,3.955579 -2.2811284,3.9341927 -2.2479624,3.9109621 C -2.2119138,3.8857126 -2.2116403,3.8827675 -2.2411678,3.8377031 C -2.2813597,3.7763628 -2.2660201,3.7001573 -2.1955774,3.6112167 C -2.1640819,3.5714504 -2.1414413,3.5213987 -2.1414079,3.4914652 C -2.1413766,3.4631781 -2.1292047,3.3706034 -2.1143598,3.2857415 L -2.0873685,3.1314482 L -2.1422649,3.0300927 C -2.1970602,2.928925 -2.2683163,2.8686483 -2.360231,2.8457131 C -2.4002753,2.8357202 -2.4098709,2.820863 -2.420029,2.7531239 C -2.4316617,2.6755527 -2.4341172,2.6728739 -2.4836217,2.6837464 C -2.5246242,2.6927527 -2.5393308,2.6871797 -2.5558069,2.6563927 C -2.5742473,2.6219375 -2.5797731,2.6206076 -2.6065781,2.6441728 C -2.6231218,2.6587172 -2.6852763,2.6756029 -2.7446995,2.6816961 C -2.8041227,2.6877893 -2.9094637,2.7009245 -2.9787903,2.7108861 C -3.0481176,2.7208469 -3.1696647,2.7335368 -3.2488954,2.7390859 L -3.3929514,2.7491748 L -3.4705851,2.6696341 C -3.5132835,2.6258874 -3.5579033,2.5584939 -3.5697398,2.519872 C -3.6344239,2.3088146 -3.8010971,2.0956372 -3.9281845,2.0614155 C -3.998804,2.0424003 -4.2891956,2.0473127 -4.5183884,2.0714004 C -4.5629556,2.0760843 -4.6203346,2.0800247 -4.6458969,2.0801579 C -4.6714595,2.0802903 -4.7322331,2.0924898 -4.7809494,2.1072685 C -4.8296659,2.1220472 -4.8871668,2.1342264 -4.9087295,2.1343333 C -4.9314473,2.1344461 -4.9696958,2.1609288 -4.9996819,2.197307 C -5.047455,2.2552642 -5.0603489,2.2605971 -5.1675578,2.2667412 C -5.2314278,2.2704015 -5.3100205,2.286719 -5.342208,2.3030008 C -5.3743954,2.3192833 -5.4270663,2.3460273 -5.4592537,2.362432 C -5.6081493,2.4383182 -5.6511634,2.4548532 -5.755336,2.4762482 C -5.8273843,2.4910458 -5.8807565,2.5139577 -5.9061545,2.5409927 C -5.9633609,2.6018856 -6.0425188,2.6147188 -6.0909721,2.570956 C -6.1164195,2.5479721 -6.2021203,2.5212761 -6.3370943,2.4942885 C -6.6052067,2.4406798 -6.8610919,2.4427861 -7.2174175,2.5015341 C -7.2916845,2.5137788 -7.4316245,2.5646416 -7.4800435,2.5969884 C -7.4995785,2.6100392 -7.5370765,2.6207167 -7.5633715,2.6207167 C -7.5896675,2.6207167 -7.6208365,2.6323509 -7.6326375,2.6465701 C -7.6444375,2.6607893 -7.6777505,2.6776189 -7.7066635,2.6839697 C -7.7355775,2.6903198 -7.7638565,2.7029958 -7.7695065,2.7121375 C -7.7855695,2.7381284 -7.8930265,2.7316278 -7.9317735,2.7023214 C -7.9509985,2.6877806 -7.9773005,2.6756255 -7.9902245,2.6753104 C -8.0118625,2.6747837 -8.1278835,2.6235789 -8.1918145,2.5863415 C -8.2066705,2.5776888 -8.2588315,2.5514963 -8.3077285,2.5281369 C -8.3566245,2.5047768 -8.4361705,2.4471746 -8.4844965,2.4001314 C -8.5328225,2.3530881 -8.5792445,2.3145979 -8.5876565,2.3145979 C -8.5960675,2.3145979 -8.6291125,2.281565 -8.6610885,2.2411912 C -8.6969495,2.1959137 -8.7551175,2.1519116 -8.8128835,2.1263652 C -8.8643935,2.1035849 -8.9109135,2.073543 -8.9162615,2.0596054 C -8.9216105,2.0456685 -8.9643535,2.0145316 -9.0112465,1.9904134 C -9.0581405,1.9662951 -9.1095265,1.9266925 -9.1254395,1.902407 C -9.1509125,1.8635297 -9.2581655,1.8062426 -9.5286685,1.6870294 C -9.5668175,1.6702165 -9.5948595,1.6456298 -9.5933315,1.6303323 C -9.5880015,1.576931 -9.6192115,1.5030871 -9.6610075,1.4702099 C -9.7166015,1.4264799 -9.7454755,1.3478225 -9.7321015,1.2765381 C -9.7097225,1.157242 -9.9134249,0.84769793 -10.022876,0.8346821 C -10.058765,0.8304143 -10.090668,0.79911154 -10.152521,0.70747395 C -10.212385,0.61878368 -10.245328,0.58592688 -10.274387,0.58592688 C -10.296292,0.58592688 -10.31937,0.57174624 -10.325673,0.55441459 C -10.331976,0.53708294 -10.36499,0.49977282 -10.399036,0.47150321 C -10.467989,0.41425099 -10.524846,0.41760426 -10.505742,0.4777965 C -10.493281,0.51705791 -10.513818,0.52560223 -10.545205,0.4942158 C -10.559444,0.47997551 -10.577895,0.48305449 -10.611921,0.50534875 C -10.672856,0.54527513 -10.712794,0.51605971 -10.712794,0.43155718 C -10.712794,0.39473451 -10.724182,0.36526009 -10.742332,0.35510206 C -10.788285,0.32938614 -10.753388,0.293948 -10.694787,0.30681833 C -10.623359,0.32250718 -10.611915,0.28824985 -10.675949,0.25042462 C -10.705552,0.23293727 -10.737686,0.19593054 -10.747358,0.16818695 C -10.757029,0.14044408 -10.776105,0.11774527 -10.78975,0.11774527 C -10.803395,0.11774527 -10.831316,0.099512972 -10.851798,0.077229572 C -10.88411,0.042073772 -10.889059,0.013445472 -10.889197,-0.13915923 C -10.889337,-0.29319713 -10.885138,-0.31729063 -10.855373,-0.33322033 C -10.822575,-0.35077313 -10.822921,-0.35437663 -10.865285,-0.43645573 C -10.889428,-0.48323193 -10.918793,-0.54818973 -10.930541,-0.58080643 C -10.956628,-0.65323383 -11.047102,-0.75355253 -11.072293,-0.73798303 C -11.082392,-0.73174133 -11.1049,-0.73460643 -11.12231,-0.74434973 C -11.155038,-0.76266503 -11.150974,-0.76565533 -11.043219,-0.80252743 C -11.008212,-0.81450653 -10.877134,-0.98429953 -10.836483,-1.070324 C -10.80176,-1.1438057 -10.789758,-1.2054013 -10.754715,-1.4900036 C -10.747853,-1.5457294 -10.732964,-1.582125 -10.71256,-1.5930441 C -10.673015,-1.6142084 -10.657185,-1.6848439 -10.646504,-1.8877978 C -10.641188,-1.9888181 -10.645211,-2.0547414 -10.657437,-2.0669674 C -10.668076,-2.0776062 -10.67678,-2.0999041 -10.67678,-2.1165185 C -10.67678,-2.1331326 -10.688935,-2.1568136 -10.703791,-2.1691428 C -10.718646,-2.181472 -10.730801,-2.209833 -10.730801,-2.2321673 C -10.730801,-2.2545016 -10.743817,-2.2835778 -10.759727,-2.2967812 C -10.797492,-2.3281238 -10.786011,-2.4962317 -10.742848,-2.5439267 C -10.693018,-2.5989885 -10.705737,-2.6651636 -10.780321,-2.7388784 C -10.81746,-2.7755857 -10.860001,-2.8299634 -10.874857,-2.8597178 C -10.910435,-2.9309772 -10.946885,-2.9422125 -10.946885,-2.8819195 C -10.946885,-2.8317689 -10.963456,-2.8231612 -10.996462,-2.8561672 C -11.011273,-2.8709792 -11.011834,-2.8870088 -10.998418,-2.9120773 C -10.988073,-2.9314069 -10.97723,-2.972707 -10.974321,-3.0038554 C -10.967031,-3.0819157 -10.91018,-3.3236712 -10.890074,-3.362106 C -10.881008,-3.3794377 -10.85771,-3.3936182 -10.838302,-3.3936182 C -10.801225,-3.3936182 -10.758325,-3.4701239 -10.706352,-3.6289338 C -10.691547,-3.6741745 -10.662518,-3.7398578 -10.641845,-3.7748963 C -10.621172,-3.8099349 -10.606394,-3.8552507 -10.609006,-3.8755979 C -10.612305,-3.9012935 -10.564488,-3.9632649 -10.452453,-4.0784944 C -10.363737,-4.1697399 -10.28068,-4.2645788 -10.267882,-4.289247 C -10.255083,-4.3139153 -10.244612,-4.3767474 -10.244612,-4.4288737 C -10.244612,-4.4911507 -10.235351,-4.5313356 -10.217601,-4.5460657 C -10.202746,-4.558395 -10.190591,-4.5821478 -10.190591,-4.59885 C -10.190591,-4.615552 -10.178694,-4.6449466 -10.164154,-4.6641712 C -10.149613,-4.6833959 -10.137458,-4.7198928 -10.137143,-4.7452754 C -10.136594,-4.7895049 -10.055195,-4.8878206 -10.01854,-4.8885263 C -10.009178,-4.8887065 -9.9651349,-4.9135027 -9.9206669,-4.9436291 C -9.8378429,-4.9997418 -9.8159959,-5.0334961 -9.7409285,-5.2213279 C -9.7171795,-5.280751 -9.6796595,-5.3585322 -9.6575495,-5.3941749 C -9.6203645,-5.4541218 -9.6091225,-5.4598401 -9.5075955,-5.4704517 C -9.4472305,-5.4767613 -9.3658505,-5.4982436 -9.3267515,-5.5181903 C -9.2876515,-5.5381371 -9.2425915,-5.5544573 -9.2266165,-5.5544573 C -9.2106415,-5.5544573 -9.1677775,-5.5878784 -9.1313625,-5.6287268 C -9.0949475,-5.6695749 -9.0151765,-5.7347047 -8.9540935,-5.7734599 C -8.8319985,-5.8509248 -8.7513415,-5.9342683 -8.6690005,-6.0680462 C -8.6392885,-6.1163183 -8.5970985,-6.1845965 -8.5752445,-6.2197771 C -8.5261395,-6.2988238 -8.5233635,-6.3676185 -8.5676605,-6.4077072 C -8.5972155,-6.4344533 -8.6003815,-6.4586741 -8.5933345,-6.6040731 C -8.5839485,-6.7977311 -8.5673435,-6.8504827 -8.4828195,-6.9551566 C -8.4346305,-7.0148337 -8.4185385,-7.0536367 -8.4118785,-7.1262228 C -8.4042385,-7.2094819 -8.3928295,-7.2310108 -8.3110445,-7.3164999 C -8.1305475,-7.5051706 -8.0774145,-7.5532346 -8.0492645,-7.5533008 C -8.0335805,-7.5533379 -7.9964385,-7.567939 -7.9667275,-7.585748 C -7.9370155,-7.6035569 -7.8843455,-7.6294081 -7.8496825,-7.6431944 C -7.7275125,-7.6917837 -7.5960835,-7.804059 -7.5574745,-7.8928191 C -7.5374785,-7.9387878 -7.5110295,-7.9885528 -7.4986995,-8.0034079 C -7.4863675,-8.0182637 -7.4500615,-8.1033468 -7.4180185,-8.1924816 C -7.3859745,-8.2816164 -7.3530035,-8.3707505 -7.3447495,-8.3905588 C -7.3364955,-8.4103663 -7.3250285,-8.4435679 -7.3192665,-8.4643401 C -7.3124435,-8.4889335 -7.2836025,-8.509654 -7.2365835,-8.5237415 C -7.1691855,-8.5439339 -7.1531625,-8.5796318 -7.2114965,-8.5796318 C -7.2257675,-8.5796318 -7.2374435,-8.5917869 -7.2374435,-8.6066427 C -7.2374435,-8.6227281 -7.2208925,-8.633653 -7.1965215,-8.633653 C -7.1537235,-8.633653 -7.1065812,-8.5633151 -7.0859407,-8.4686611 C -7.0733461,-8.4109076 -6.9171408,-8.281169 -6.8397282,-8.2641662 C -6.7860861,-8.2523843 -6.628513,-8.2806088 -6.5651858,-8.3133419 C -6.541539,-8.3255647 -6.5232593,-8.3223359 -6.5007432,-8.3019587 C -6.4600652,-8.2651455 -6.4523962,-8.2658912 -6.386086,-8.3131084 C -6.3487417,-8.3396995 -6.3281419,-8.3456931 -6.3233633,-8.3313567 C -6.2987235,-8.2574386 -6.2554271,-8.235511 -6.1170903,-8.2268888 C -5.9893853,-8.2189294 -5.972034,-8.2221467 -5.9010638,-8.2669454 C -5.8586209,-8.2937359 -5.7887057,-8.3547925 -5.7456967,-8.4026266 C -5.6782784,-8.4776077 -5.658065,-8.489597 -5.5990659,-8.489597 C -5.5548477,-8.489597 -5.5269652,-8.4991548 -5.5202681,-8.5166072 C -5.5079696,-8.5486572 -5.4525181,-8.5521887 -5.4231244,-8.5227943 C -5.4073643,-8.5070349 -5.3783125,-8.5267383 -5.3036501,-8.6038257 C -5.2493917,-8.6598461 -5.1934469,-8.7056809 -5.1793288,-8.7056809 C -5.16521,-8.7056809 -5.1250487,-8.7250963 -5.090081,-8.748826 C -5.0277011,-8.7911577 -4.9822659,-8.7994561 -4.5634058,-8.8450151 C -4.5138866,-8.8504012 -4.4548186,-8.8692655 -4.4321437,-8.8869355 C -4.4023182,-8.9101785 -4.3679779,-8.9171945 -4.3079732,-8.9123045 C -4.2580589,-8.9082375 -4.2049186,-8.9159455 -4.1745263,-8.9316625 C -4.1398897,-8.9495735 -4.0651185,-8.9577785 -3.936531,-8.9577785 C -3.7553176,-8.9577785 -3.7467639,-8.9559695 -3.6810633,-8.9037585 C -3.6009647,-8.8401035 -3.5994405,-8.8398779 -3.5439373,-8.8834505 C -3.5203181,-8.9019925 -3.4653133,-8.9231715 -3.4217048,-8.9305155 C -3.3729409,-8.9387285 -3.326503,-8.9610405 -3.301081,-8.9884715 C -3.2556019,-9.0375435 -3.1999554,-9.0351075 -3.0820504,-8.9788825 C -3.0254727,-8.9519025 -3.0219397,-8.9524335 -2.9941663,-8.9920845 C -2.9605477,-9.0400825 -2.8996236,-9.0351795 -2.7845851,-8.9752175 C -2.733413,-8.9485455 -2.7073311,-8.9440485 -2.6821063,-8.9575475 C -2.6634964,-8.9675085 -2.6352479,-8.9706595 -2.619332,-8.9645515 C -2.5759287,-8.9478965 -2.430582,-8.9942835 -2.4108917,-9.0310745 C -2.4011185,-9.0493355 -2.3390878,-9.0804925 -2.267564,-9.1030665 C -2.1982097,-9.1249545 -2.1413416,-9.1518635 -2.1411896,-9.1628645 C -2.1409924,-9.1771935 -2.1371619,-9.1770845 -2.1276848,-9.1624825 C -2.1204079,-9.1512705 -2.0820421,-9.1266625 -2.0424271,-9.1077965 C -1.9919753,-9.0837695 -1.9713471,-9.0630595 -1.973564,-9.0386615 C -1.9768845,-9.0021255 -1.926795,-8.9037585 -1.9048711,-8.9037585 C -1.8978611,-8.9037585 -1.854385,-8.9325665 -1.808257,-8.9677765 C -1.7413219,-9.0188695 -1.7192284,-9.0275135 -1.6988352,-9.0105895 C -1.6693026,-8.9860785 -1.664933,-8.9290515 -1.6913379,-8.9127315 C -1.7012682,-8.9065945 -1.72578,-8.8656011 -1.7458094,-8.8216347 C -1.7658381,-8.7776675 -1.7929218,-8.7416946 -1.8059951,-8.7416946 C -1.8190684,-8.7416946 -1.8435271,-8.7264874 -1.8603473,-8.7079014 C -1.8872447,-8.6781804 -1.8881382,-8.6651594 -1.8677574,-8.5998591 C -1.8550129,-8.5590225 -1.8390767,-8.5256106 -1.832344,-8.5256106 C -1.796705,-8.5256106 -1.7092974,-8.4276965 -1.7092974,-8.3877737 C -1.7092974,-8.3632437 -1.7005195,-8.326771 -1.6897896,-8.3067227 C -1.6741197,-8.2774425 -1.6807164,-8.2484533 -1.7233289,-8.1593491 C -1.7667788,-8.0684936 -1.7983165,-8.0323359 -1.8976538,-7.9594916 L -2.0189317,-7.8705569 L -2.0077878,-7.7974288 C -2.000329,-7.7484816 -1.9803956,-7.7109321 -1.9475076,-7.6838738 C -1.884264,-7.631841 -1.8610152,-7.6328421 -1.824095,-7.6891893 C -1.7851516,-7.7486249 -1.7207941,-7.7429231 -1.7122745,-7.6792823 C -1.7089598,-7.6545231 -1.6988309,-7.626567 -1.6897656,-7.6171584 C -1.6807004,-7.6077497 -1.6732838,-7.5816009 -1.6732838,-7.5590506 C -1.6732838,-7.5112878 -1.6273238,-7.4781567 -1.5042736,-7.4372161 C -1.4558851,-7.4211169 -1.3960799,-7.3920426 -1.3713724,-7.3726076 C -1.2888881,-7.3077264 -1.1926844,-7.2937414 -1.0746615,-7.3294757 C -0.97625051,-7.3592717 -0.96587491,-7.3593772 -0.90675441,-7.3311847 C -0.87209691,-7.3146577 -0.81281841,-7.3011355 -0.77502451,-7.3011355 C -0.72692346,-7.3011355 -0.68344736,-7.2845743 -0.63009986,-7.2459299 C -0.58141676,-7.2106634 -0.51775556,-7.1848428 -0.45384406,-7.174441 C -0.33619296,-7.1552927 -0.28674516,-7.1171801 -0.28674516,-7.0456483 C -0.28674516,-6.9781172 -0.21436656,-6.8375215 -0.14637856,-6.772988 C -0.087386056,-6.7169929 0.0017880443,-6.6899864 0.12986854,-6.6893272 C 0.24523724,-6.6887335 0.62770494,-6.5588524 0.65788584,-6.5100186 C 0.68077374,-6.4729857 0.90577314,-6.328758 0.94065754,-6.328758 C 1.0071227,-6.328758 1.1555469,-6.4237947 1.2067619,-6.4991447 C 1.2719387,-6.5950377 1.2834179,-6.647798 1.2522279,-6.7081132 C 1.2380895,-6.7354538 1.2211994,-6.8031048 1.2146943,-6.8584487 C 1.2046789,-6.9436678 1.2093556,-6.9713023 1.2452398,-7.0389446 C 1.2685439,-7.0828733 1.3061254,-7.1272508 1.3287543,-7.1375616 C 1.3513833,-7.1478717 1.3698979,-7.164347 1.3698979,-7.1741725 C 1.3698979,-7.1969033 1.546305,-7.2780781 1.6428383,-7.2997677 C 1.6832878,-7.3088562 1.7251276,-7.3250369 1.7358153,-7.3357246 C 1.7719417,-7.371851 1.9701476,-7.3584408 2.0744314,-7.3128141 C 2.1276596,-7.289526 2.1954372,-7.264574 2.2250499,-7.2573655 C 2.2883509,-7.241956 2.3056106,-7.2197454 2.305986,-7.1532112 C 2.306317,-7.0945148 2.3498404,-7.0670447 2.442506,-7.0670447 C 2.4791279,-7.0670447 2.5357028,-7.0505978 2.5682278,-7.0304963 C 2.6133241,-7.0026247 2.652942,-6.9949578 2.7350924,-6.9982019 C 2.8598713,-7.0031296 2.8821204,-6.9896496 2.9350466,-6.8770543 C 2.9557585,-6.832991 2.9817043,-6.7969396 2.9927041,-6.7969396 C 3.0037039,-6.7969396 3.0519593,-6.8108823 3.0999382,-6.8279222 C 3.1817793,-6.8569899 3.1930614,-6.8570481 3.2824247,-6.8288586 C 3.334814,-6.812333 3.4169018,-6.7943939 3.4648428,-6.7889933 C 3.5127831,-6.7835927 3.5897628,-6.7614942 3.635909,-6.7398853 C 3.6820545,-6.7182763 3.7508151,-6.6986602 3.7887101,-6.6962942 C 3.8266052,-6.6939289 3.8718107,-6.6791415 3.8891664,-6.6634345 C 3.9065228,-6.6477282 3.9472691,-6.6348768 3.9797148,-6.6348768 C 4.0121598,-6.6348768 4.0802911,-6.6139896 4.1311176,-6.5884614 C 4.1937653,-6.5569949 4.2398293,-6.5453054 4.2741368,-6.5521669 C 4.3273206,-6.5628037 4.4615379,-6.6478046 4.5018536,-6.6963815 C 4.5148759,-6.7120733 4.5418782,-6.7249116 4.5618566,-6.7249116 C 4.5818358,-6.7249116 4.6085499,-6.7390922 4.6212209,-6.7564239 C 4.6338919,-6.7737555 4.6631466,-6.7901166 4.686231,-6.7927816 C 4.7093146,-6.7954466 4.7545827,-6.8002194 4.7868261,-6.8033878 C 4.8190696,-6.8065556 4.8508067,-6.814504 4.8573539,-6.8210505 C 4.9022182,-6.8659155 4.9920442,-6.7946929 5.0819131,-6.6429984 C 5.1151606,-6.586879 5.1565603,-6.5195517 5.1739123,-6.4933832 C 5.191265,-6.467214 5.2184295,-6.4177437 5.2342784,-6.3834485 C 5.2501266,-6.3491534 5.2946773,-6.2852128 5.3332788,-6.2413591 C 5.4084076,-6.156009 5.4197232,-6.1125707 5.3762318,-6.0764756 C 5.3558226,-6.0595383 5.3540132,-6.0478335 5.3690094,-6.0297641 C 5.3883178,-6.0064986 5.4168915,-5.9125477 5.4299248,-5.8294757 C 5.4333851,-5.8074184 5.4531569,-5.7678358 5.4738615,-5.7415141 C 5.494566,-5.7151924 5.5115063,-5.6845077 5.5115063,-5.6733261 C 5.5115063,-5.6621444 5.5609526,-5.5982096 5.6213871,-5.5312488 C 5.7129069,-5.4298458 5.7293654,-5.4019204 5.7198811,-5.3641322 C 5.7065823,-5.3111429 5.7547343,-5.2175664 5.8032196,-5.2021778 C 5.8211318,-5.1964927 5.8348163,-5.174856 5.8345245,-5.1526817 C 5.8333182,-5.0611134 5.8729463,-4.9199177 5.927324,-4.8220371 C 6.1108844,-4.4916257 6.0883828,-4.5348182 6.1776064,-4.3416219 C 6.2552794,-4.1734362 6.3335199,-4.0598784 6.3717257,-4.0598775 C 6.3843181,-4.0598771 6.4039721,-4.0393524 6.4154018,-4.0142667 C 6.4334319,-3.9746956 6.4309968,-3.9650235 6.3970094,-3.9412177 C 6.3423655,-3.9029437 6.3453986,-3.8006438 6.4044893,-3.6889139 C 6.4633269,-3.5776634 6.4989702,-3.5376742 6.5392924,-3.5376742 C 6.5567935,-3.5376742 6.598079,-3.5066728 6.6310384,-3.4687823 C 6.663997,-3.4308918 6.7162423,-3.3815307 6.7471376,-3.3590908 C 6.7949797,-3.3243425 6.8048241,-3.3036387 6.8135067,-3.2195074 C 6.8191146,-3.1651765 6.8363219,-3.1031194 6.8517459,-3.0816028 C 6.8671699,-3.0600863 6.8925992,-3.0248363 6.9082546,-3.0032693 C 6.9309017,-2.9720724 6.9324899,-2.9561533 6.9160277,-2.9253916 C 6.9039438,-2.9028116 6.9001388,-2.8582904 6.9068824,-2.8183725 C 6.9132354,-2.780778 6.9212195,-2.6699664 6.9246266,-2.5721245 C 6.9320905,-2.3577873 6.9777725,-2.2119948 7.0491952,-2.174573 C 7.0750042,-2.1610499 7.0961213,-2.1425994 7.0961213,-2.1335718 C 7.0961213,-2.1245441 7.1198525,-2.1031391 7.1488584,-2.0860049 C 7.1778657,-2.0688707 7.205442,-2.0401491 7.2101419,-2.0221791 C 7.2148397,-2.0042092 7.238931,-1.981809 7.2636764,-1.9724011 C 7.3401235,-1.9433357 7.4707227,-1.7350243 7.5014209,-1.593183 C 7.5088921,-1.5586652 7.5251863,-1.5140978 7.5376332,-1.4941448 C 7.5500779,-1.4741918 7.5642942,-1.4030914 7.5692262,-1.3361439 C 7.5741568,-1.2691971 7.589236,-1.2011146 7.6027334,-1.1848503 C 7.6162316,-1.1685852 7.6353909,-1.130418 7.6453095,-1.1000335 C 7.660185,-1.0544591 7.6785629,-1.0404996 7.7503013,-1.0202891 C 7.8075993,-1.0041455 7.8606245,-0.97171513 7.905755,-0.92521093 C 7.9434275,-0.88639263 7.9871095,-0.85463223 8.0028274,-0.85463223 C 8.0185461,-0.85463223 8.0491075,-0.83069223 8.0707389,-0.80143173 C 8.0929488,-0.77139273 8.1343412,-0.74308163 8.1658157,-0.73640273 C 8.2360721,-0.72149603 8.2764182,-0.68590293 8.333533,-0.58844493 C 8.3584027,-0.54600853 8.4001051,-0.50006163 8.4262022,-0.48634083 C 8.4523015,-0.47262073 8.5077815,-0.42832613 8.5494911,-0.38790863 C 8.5911985,-0.34749113 8.6317287,-0.31442263 8.6395564,-0.31442263 C 8.6473841,-0.31442263 8.673132,-0.27795863 8.6967752,-0.23339123 C 8.7278895,-0.17473853 8.7507607,-0.15235983 8.7795861,-0.15235983 C 8.8326528,-0.15235983 8.9345684,0.0096985717 8.9466188,0.11324327 C 8.9544414,0.18045268 8.9511944,0.1897733 8.9199593,0.1897733 C 8.9004006,0.1897733 8.869351,0.20639777 8.8509623,0.22671674 C 8.8181462,0.26297773 8.81851,0.26446121 8.8706795,0.30710062 C 8.8999124,0.33099257 8.9331097,0.35083208 8.9444529,0.35118858 C 8.9557954,0.35154435 8.9871258,0.39437729 9.0140785,0.44637297 C 9.077074,0.56790333 9.0827715,0.57450147 9.1807853,0.63942274 C 9.2965615,0.71610922 9.3748522,0.71258061 9.5551093,0.6225502 C 9.692573,0.55389221 9.7030598,0.55155023 9.8263218,0.56196945 C 9.9977517,0.57646075 10.081691,0.55948924 10.106359,0.50534947 C 10.117039,0.48190787 10.135431,0.4664322 10.147229,0.47095973 C 10.159027,0.47548726 10.191503,0.46735109 10.219398,0.45287943 C 10.25473,0.43454886 10.28311,0.43150698 10.312948,0.44285091 C 10.361027,0.46113055 10.514822,0.4460383 10.548252,0.41975999 C 10.560243,0.41033533 10.608862,0.40372701 10.656294,0.40507443 C 10.821994,0.40978239 10.846441,0.40672232 10.920278,0.37202628 C 10.961174,0.35280955 11.022996,0.3331563 11.057659,0.32835375 C 11.163007,0.3137555 11.261513,0.26837323 11.276647,0.22746247 C 11.296783,0.17302951 11.338817,0.1624495 11.434081,0.18783438 C 11.546589,0.21781373 11.554026,0.22893721 11.522113,0.31948785 C 11.499083,0.38484131 11.494103,0.47335627 11.505583,0.61338309 C 11.50682,0.62848405 11.527616,0.64836067 11.551797,0.65755396 C 11.580411,0.66843299 11.59479,0.6871368 11.592982,0.71112915 C 11.58978,0.75362233 11.588754,0.75401593 11.543842,0.72998065 C 11.522308,0.71845483 11.494149,0.71806996 11.465633,0.72891261 C 11.425016,0.74435409 11.420068,0.75830264 11.409741,0.88647625 C 11.397986,1.0323569 11.371976,1.1040168 11.287457,1.2233754 C 11.260106,1.2620002 11.237729,1.3126448 11.237729,1.3359191 C 11.237729,1.3612894 11.208838,1.407125 11.165582,1.4503806 C 11.125902,1.4900611 11.078558,1.5609643 11.060375,1.607942 C 11.042189,1.6549206 11.001971,1.7338726 10.971001,1.7833917 C 10.87353,1.939234 10.823568,2.0418248 10.823568,2.0861202 C 10.823568,2.1305348 10.717871,2.3063628 10.61586,2.4316437 C 10.583604,2.4712587 10.545208,2.5326681 10.530537,2.5681091 C 10.501634,2.6379283 10.408866,2.7509929 10.20594,2.9637251 C 10.134626,3.0384857 10.058909,3.1222301 10.037679,3.1498239 C 9.9868611,3.2158758 9.8046677,3.3705409 9.7251416,3.4151381 C 9.6904783,3.4345767 9.6094469,3.4829208 9.545072,3.5225693 C 9.4806971,3.5622178 9.4118204,3.6015323 9.3920129,3.6099347 C 9.3460427,3.6294367 9.0416541,3.8928418 8.9238313,4.0150794 C 8.6862577,4.2615545 8.4286388,4.5601839 8.4286388,4.589101 C 8.4286388,4.6590096 8.0777831,4.9976396 8.005352,4.9976396 C 7.9459419,4.9976396 7.8884292,5.0706054 7.8884292,5.1459765 C 7.8884292,5.187713 7.8733035,5.2291702 7.8461507,5.2618611 C 7.822896,5.2898571 7.7983798,5.335262 7.7916668,5.3627611 C 7.7691564,5.4549713 7.6869253,5.6180657 7.6163,5.7105793 C 7.5777974,5.7610137 7.5462961,5.8194867 7.5462961,5.8405194 C 7.5462961,5.8776229 7.5135288,5.96508 7.4630551,6.0626973 C 7.4199588,6.1460474 7.4500902,6.2193333 7.5764559,6.3385101 C 7.6390985,6.3975899 7.6903521,6.4611427 7.6903521,6.4797388 C 7.6903521,6.4983349 7.6741459,6.5341536 7.6543384,6.5593347 C 7.6118438,6.6133588 7.6085029,6.6730934 7.6441266,6.7419806 C 7.6674598,6.7871024 7.6662658,6.7990844 7.6316549,6.8672389 L 7.5933808,6.9426027 L 7.6618918,7.0757804 C 7.6995715,7.1490285 7.7321715,7.2320388 7.7343323,7.260248 C 7.7467247,7.4219703 7.7894412,7.4899735 7.8970907,7.5193497 C 7.9407465,7.5312633 8.0341811,7.6602336 8.0341527,7.7085406 C 8.0341396,7.7278818 8.0217007,7.8029073 8.0065066,7.8752648 C 7.9835729,7.9844727 7.9824975,8.0288313 8.0001711,8.1363666 C 8.011881,8.2076146 8.0225687,8.3834048 8.0239205,8.5270104 C 8.0258798,8.7352376 8.0329064,8.802698 8.0586165,8.8601394 C 8.116426,8.9893018 8.1222464,9.0624393 8.0828053,9.1641301 C 8.0292832,9.3021264 7.9975709,9.3578209 7.932926,9.4273599 C 7.9007008,9.4620232 7.8682303,9.5106424 7.86077,9.5354016 C 7.8376711,9.6120487 7.7935126,9.659434 7.6813486,9.7279413 C 7.6219254,9.7642351 7.5504016,9.81274 7.5224063,9.8357312 C 7.494411,9.8587225 7.4498436,9.8776089 7.4233681,9.8776984 C 7.3968919,9.8777901 7.3347142,9.8977947 7.2851951,9.9221545 C 7.2356752,9.9465121 7.1819713,9.9666964 7.1658517,9.9670064 C 7.1497336,9.9673156 7.1264579,9.9797246 7.1141281,9.9945804 C 7.1017991,10.009436 7.0825744,10.021738 7.0714087,10.021918 C 7.0287264,10.022608 6.8929055,10.131271 6.8311279,10.214156 C 6.7956505,10.261755 6.7403517,10.32906 6.7082421,10.363724 C 6.6761325,10.398387 6.6446522,10.44413 6.6382862,10.465375 C 6.6305204,10.491292 6.6066626,10.507763 6.5657795,10.515432 C 6.5259979,10.522896 6.4683957,10.561582 6.3998294,10.626886 C 6.3420686,10.681899 6.2523125,10.75886 6.2003699,10.797911 L 6.1059305,10.868911 L 6.1082703,10.970413 C 6.1101998,11.054097 6.1183439,11.078566 6.1546624,11.109806 C 6.1887371,11.139116 6.201721,11.173191 6.2119852,11.260242 C 6.219284,11.322141 6.234828,11.382359 6.2465277,11.394059 C 6.2582274,11.405758 6.2677998,11.433968 6.2677998,11.456747 C 6.2677998,11.506263 6.2823602,11.509335 6.3147608,11.466651 C 6.3364985,11.438016 6.338735,11.439682 6.3392552,11.484903 C 6.3395702,11.512272 6.3296989,11.551212 6.3173189,11.571434 C 6.2983248,11.602462 6.2997312,11.610999 6.3263223,11.626107 C 6.351454,11.640385 6.3578346,11.668622 6.3578346,11.765562 C 6.3578346,11.833076 6.3670301,11.896311 6.3785188,11.907799 C 6.394092,11.923372 6.3924237,11.938827 6.3717642,11.970359 C 6.3341747,12.027728 6.3124894,12.194506 6.3385386,12.225893 C 6.3502594,12.240015 6.3547825,12.282121 6.3492823,12.325898 C 6.3361391,12.4305 6.2414495,12.541881 6.1293634,12.584585 C 6.0817054,12.602741 6.0102994,12.629728 5.9706844,12.644557 C 5.8701613,12.68218 5.7564753,12.733139 5.6195479,12.801945 C 5.5186777,12.852635 5.4959549,12.873543 5.455122,12.953247 C 5.4140541,13.033409 5.4110159,13.049999 5.4323177,13.07776 C 5.4554458,13.107902 5.4575644,13.107403 5.4682928,13.069273 C 5.4745628,13.04699 5.4918472,13.028757 5.506703,13.028757 C 5.5260652,13.028757 5.5305062,13.04023 5.5223875,13.069273 C 5.5161582,13.091557 5.50654,13.174614 5.5010143,13.253845 C 5.4954878,13.333076 5.4806211,13.430314 5.4679771,13.469929 C 5.4553323,13.509545 5.4344924,13.574078 5.4216664,13.613337 C 5.4088398,13.652596 5.3960793,13.718625 5.3933081,13.760068 C 5.3905376,13.801512 5.3754831,13.860148 5.3598532,13.890372 C 5.344224,13.920598 5.3314359,13.952601 5.3314359,13.961493 C 5.3314359,13.992714 5.1777035,14.149019 5.1153519,14.181193 C 5.0806886,14.199079 5.0352424,14.232736 5.0143603,14.255983 C 4.9800687,14.294159 4.8522946,14.520275 4.770596,14.687362 C 4.6997124,14.832327 4.5540951,15.027194 4.4550868,15.109577 C 4.3973071,15.157654 4.321677,15.231843 4.2870195,15.27444 C 4.133269,15.463419 3.9220326,15.65773 3.6890339,15.824518 C 3.4827092,15.97221 3.4014297,16.005441 3.2768182,15.993047 C 3.1677689,15.982203 3.1243343,16.000747 3.1131206,16.062936 C 3.1075345,16.093912 3.0924568,16.09895 3.0053474,16.09895 C 2.9243888,16.09895 2.8951079,16.107303 2.8594093,16.140588 C 2.8150259,16.181969 2.8140998,16.182041 2.7090636,16.152382 C 2.4825779,16.088427 2.4178938,16.081116 2.3802155,16.115214 C 2.349676,16.142853 2.3336576,16.144007 2.2404586,16.125285 C 2.0475995,16.086545 2.0045468,16.093389 1.917994,16.176556 C 1.848717,16.243125 1.8424848,16.245244 1.7079982,16.247988 C 1.6317687,16.249542 1.5548981,16.258397 1.5371743,16.267665 C 1.5194512,16.276931 1.4684865,16.295304 1.4239191,16.30849 C 1.3778209,16.322131 1.3195989,16.357495 1.2888665,16.390523 C 1.2385748,16.444569 1.231738,16.44687 1.1898282,16.42385 z M 6.1065366,8.8316355 C 6.125706,8.7958169 6.1281731,8.7955419 6.1613013,8.8255227 C 6.1803812,8.8427903 6.2007344,8.852175 6.2065301,8.8463808 C 6.2276937,8.8252164 6.1915578,8.7586079 6.1504303,8.7429707 C 6.1175364,8.7304649 6.1083809,8.7137327 6.1091186,8.667473 C 6.1099801,8.6134897 6.1046733,8.5489831 6.0758166,8.2626471 C 6.0678281,8.1833778 6.0720777,8.1645016 6.1040826,8.1370985 C 6.1647135,8.085185 6.1559589,7.971064 6.0862503,7.9046359 C 6.0406695,7.8612006 6.0323892,7.8414848 6.0399223,7.7943236 C 6.0449678,7.7627401 6.0385778,7.6763343 6.0257234,7.6023106 C 6.0072124,7.4957124 5.9896967,7.4524859 5.9415003,7.3944567 C 5.8722464,7.3110731 5.8620389,7.3072135 5.8365828,7.3547791 C 5.8145111,7.3960202 5.8420692,7.4912518 5.8921471,7.5467899 C 5.9188001,7.5763488 5.9257547,7.6132376 5.9260966,7.7268596 C 5.9263331,7.8054522 5.9339047,7.9015715 5.9429234,7.9404575 C 5.9556998,7.9955474 5.9527111,8.0233813 5.9293881,8.0665067 C 5.8578643,8.1987582 5.8540425,8.21645 5.8874762,8.2605452 C 5.9296951,8.3162259 5.961681,8.4325739 5.961681,8.5304626 C 5.961681,8.5933395 5.9716848,8.6201657 6.0077756,8.6540716 C 6.0419718,8.6861965 6.0531418,8.7137349 6.0510487,8.7607505 C 6.0494961,8.7956066 6.0490115,8.8342547 6.0499712,8.8466347 C 6.0526791,8.8815737 6.0842969,8.8731909 6.1065366,8.8316355 z M 4.0683629,7.2417137 C 4.1199519,7.2131066 4.2150024,7.0756938 4.2150024,7.0297201 C 4.2150024,6.9696202 4.1552926,6.9942215 4.0670985,7.0906588 C 3.9496824,7.2190492 3.9504201,7.3071167 4.0683629,7.2417137 z M 4.8992687,7.017845 C 4.8992687,7.0098231 4.8579025,6.9227145 4.8073445,6.8242699 C 4.7127828,6.6401435 4.7024095,6.6086974 4.6846471,6.4523313 C 4.681304,6.422902 4.5691969,6.3121503 4.5427505,6.3121503 C 4.5037445,6.3121503 4.4130796,6.2227128 4.4130796,6.1842342 C 4.4130796,6.1671056 4.4346987,6.1373423 4.4611225,6.1180943 L 4.5091654,6.0830978 L 4.4707174,6.0208866 C 4.4428385,5.9757786 4.4350377,5.9416144 4.4423408,5.8966119 C 4.4501765,5.8483238 4.444095,5.8270197 4.4149428,5.8006374 C 4.3846245,5.7731994 4.3795825,5.7535381 4.3885256,5.6976115 C 4.3970335,5.6444066 4.3886958,5.6055119 4.3523075,5.5286595 C 4.3259717,5.473037 4.305038,5.3971428 4.305038,5.3572878 C 4.305038,5.3089182 4.2970931,5.2857516 4.2805065,5.2857516 C 4.2641221,5.2857516 4.252023,5.3193774 4.2440753,5.3870016 C 4.2342905,5.4702556 4.2375593,5.492189 4.2624662,5.510401 C 4.2890712,5.5298549 4.2900636,5.5421832 4.270622,5.6117295 C 4.2324818,5.7481673 4.2352225,5.8279947 4.280994,5.9137631 C 4.3299165,6.0054371 4.3338321,6.0542999 4.295638,6.0965043 C 4.2709,6.123839 4.27353,6.1374674 4.3226483,6.2364664 C 4.3525781,6.2967888 4.377066,6.3537587 4.377066,6.3630663 C 4.377066,6.3844511 4.5152273,6.5102274 4.5387177,6.5102274 C 4.5640436,6.5102274 4.6111567,6.6087855 4.6111567,6.6617655 C 4.6111567,6.6867612 4.636247,6.7356276 4.6671569,6.7708322 C 4.7149509,6.8252667 4.7214283,6.8438301 4.7113583,6.8975078 C 4.7011821,6.9517538 4.7043491,6.9604022 4.7343947,6.9604022 C 4.7535539,6.9604022 4.7883591,6.9763391 4.8117403,6.995817 C 4.8556711,7.0324149 4.8992687,7.043387 4.8992687,7.017845 z M 5.6869603,4.9341785 C 5.7190852,4.9146111 5.7454203,4.8925242 5.7454835,4.8850959 C 5.7455454,4.8776684 5.6845689,4.8715912 5.6099792,4.8715912 C 5.5013039,4.8715912 5.472127,4.8657672 5.4631127,4.8422761 C 5.4515694,4.8121949 5.5174911,4.7467323 5.5601225,4.7459422 C 5.5876442,4.7454322 5.745597,4.6394197 5.745597,4.6214587 C 5.745597,4.6140392 5.7753516,4.5732077 5.8117181,4.5307211 C 5.8678251,4.4651726 5.8746423,4.4483568 5.8567351,4.4196827 C 5.8272141,4.3724117 5.8304284,4.3012168 5.8626428,4.2888557 C 5.9086646,4.2711952 5.8927502,4.2287966 5.8151754,4.1623955 C 5.7567009,4.1123438 5.7337358,4.1023713 5.7083,4.1159837 C 5.6904816,4.1255204 5.5985683,4.1354624 5.5040496,4.1380779 C 5.3726777,4.1417135 5.3251674,4.1498627 5.3023565,4.1726736 C 5.2745759,4.200455 5.2758854,4.2056344 5.3213514,4.2477703 L 5.3701851,4.2930282 L 5.3166078,4.320734 C 5.2694721,4.345109 5.2603828,4.3452494 5.2410075,4.3219031 C 5.2044613,4.2778676 5.1690646,4.2917084 5.1399351,4.3614243 C 5.1183618,4.4130562 5.1167568,4.4371868 5.1325854,4.4719257 C 5.1446547,4.4984158 5.1479548,4.5489149 5.1407543,4.5969331 C 5.1318898,4.6560456 5.1352897,4.6819718 5.1535249,4.6943052 C 5.173566,4.7078609 5.1705336,4.7166154 5.1378608,4.7395281 C 5.0602984,4.7939225 5.1112726,4.889598 5.2178155,4.889598 C 5.2512921,4.889598 5.2966293,4.9007651 5.3185641,4.9144147 C 5.371884,4.9475923 5.4714518,4.9647246 5.4848598,4.9430291 C 5.5013053,4.9164205 5.5583553,4.9222838 5.5840319,4.9532221 C 5.5966345,4.9684075 5.6118075,4.97834 5.6177487,4.9752937 C 5.6236905,4.9722475 5.6548354,4.9537452 5.6869603,4.9341785 z M 4.8483069,3.6478007 C 4.9397117,3.5578343 4.9724091,3.5139246 4.9641071,3.4922902 C 4.9533888,3.4643589 4.9501461,3.4643087 4.9199835,3.4916049 C 4.9020785,3.5078088 4.878057,3.5210669 4.8666018,3.5210669 C 4.8349389,3.5210669 4.6849556,3.7208131 4.6956644,3.7487196 C 4.7008234,3.762164 4.7086205,3.7731645 4.7129917,3.7731645 C 4.717362,3.7731645 4.7782542,3.7167504 4.8483069,3.6478007 z M -0.64402736,-0.080331828 C -0.59712886,-0.11430473 -0.54746136,-0.13435303 -0.51019336,-0.13435303 C -0.43132206,-0.13435303 -0.41999276,-0.15925113 -0.47807576,-0.20493903 C -0.52909366,-0.24506983 -0.58377616,-0.25366073 -0.60186736,-0.22438783 C -0.62142826,-0.19273803 -0.68006136,-0.20508673 -0.69222736,-0.24341903 C -0.69918786,-0.26534733 -0.71621026,-0.27804233 -0.73395666,-0.27453773 C -0.75737646,-0.26991273 -0.76417536,-0.24704733 -0.76504846,-0.16997373 C -0.76691386,-0.0053267283 -0.75734946,0.0017581717 -0.64402736,-0.080331828 z M 9.4418977,12.850395 C 9.4061397,12.809645 9.3773317,12.794667 9.3347112,12.794667 C 9.2965542,12.794667 9.2621804,12.77969 9.2351811,12.751303 C 9.2124955,12.727451 9.1777296,12.7051 9.1579221,12.701634 C 9.1302381,12.696786 9.1205596,12.678702 9.1160771,12.623451 C 9.1102931,12.552163 9.0714959,12.48866 9.0335834,12.488427 C 9.0205806,12.488348 9.0123681,12.410947 9.0094666,12.261129 C 9.0057234,12.06784 8.9995181,12.024974 8.9678763,11.973777 C 8.9223689,11.900143 8.897091,11.823458 8.8793555,11.705244 C 8.8681768,11.630726 8.8729669,11.599692 8.9071493,11.525174 C 8.9298648,11.475655 8.9510147,11.419588 8.9541475,11.400582 C 8.957281,11.381575 8.9841545,11.352577 9.0138661,11.336139 C 9.0549078,11.313433 9.072214,11.286859 9.0858941,11.225538 C 9.0957975,11.181145 9.1303516,11.111595 9.1626795,11.070984 C 9.2289882,10.987683 9.2813906,10.874871 9.2656232,10.849361 C 9.2598545,10.840026 9.2627858,10.804679 9.2721369,10.770809 C 9.286402,10.719143 9.2822906,10.698086 9.2466007,10.640017 C 9.2232064,10.601948 9.2038107,10.544207 9.2035015,10.511703 C 9.2031916,10.479197 9.1908495,10.423665 9.1760715,10.388296 C 9.1612928,10.352928 9.1403511,10.251194 9.1295339,10.162221 L 9.1098632,10.00045 L 9.192728,9.8578385 C 9.2535736,9.7531189 9.2726841,9.7036412 9.2646497,9.6716298 C 9.2586315,9.6476542 9.2590382,9.6112455 9.2655512,9.5907229 C 9.2753549,9.5598355 9.2922107,9.5534091 9.3634246,9.5534091 C 9.4250768,9.5534091 9.4582297,9.5437138 9.4804177,9.5191954 C 9.4995901,9.4980107 9.5353534,9.4849825 9.5743369,9.4849825 C 9.6089646,9.4849825 9.6509841,9.472772 9.6677141,9.4578457 C 9.6844426,9.4429215 9.7305444,9.4219703 9.7701594,9.4112869 C 9.8097751,9.4006036 9.897636,9.3552832 9.9654071,9.3105739 C 10.03318,9.2658639 10.094567,9.2292828 10.101823,9.2292828 C 10.124596,9.2292828 10.190121,9.1503729 10.209226,9.0999407 C 10.223165,9.063145 10.241692,9.0502681 10.286955,9.0459196 C 10.338961,9.0409228 10.347071,9.0331365 10.351884,8.9835723 C 10.354912,8.9524216 10.373143,8.9126771 10.3924,8.895248 C 10.431261,8.8600805 10.436998,8.8126553 10.408773,8.7599175 C 10.368253,8.6842037 10.473359,8.6096475 10.515204,8.6844213 C 10.524857,8.7016707 10.538415,8.7101234 10.545333,8.7032051 C 10.558756,8.6897833 10.549324,8.6630932 10.513466,8.6130393 C 10.496145,8.5888593 10.496027,8.577244 10.512926,8.5603438 C 10.529827,8.5434443 10.541959,8.5453192 10.567961,8.5688517 C 10.606959,8.6041443 10.696001,8.6091499 10.704546,8.5765295 C 10.707787,8.5641496 10.720019,8.5241672 10.731728,8.4876799 C 10.749179,8.433292 10.748014,8.4093739 10.725266,8.35493 C 10.687668,8.264944 10.688984,8.2601472 10.756015,8.2427777 C 10.792429,8.2333422 10.816951,8.2144543 10.820977,8.1927435 C 10.835498,8.1144332 10.913603,8.0797946 10.913603,8.1516654 C 10.913603,8.1730146 10.933861,8.2170407 10.958621,8.2495025 C 10.983381,8.2819642 11.003639,8.3177079 11.003639,8.3289333 C 11.003639,8.3401586 11.022859,8.3751377 11.046353,8.4066645 C 11.106314,8.4871299 11.183708,8.7729384 11.183708,8.9139016 C 11.183708,8.9772499 11.191812,9.0340889 11.201715,9.0402098 C 11.211619,9.0463299 11.219722,9.0693146 11.219722,9.0912865 C 11.219722,9.1132585 11.230616,9.1472183 11.243932,9.1667537 C 11.257249,9.1862898 11.272689,9.2204744 11.278243,9.2427199 C 11.289175,9.2865023 11.229073,9.4644722 11.196573,9.484559 C 11.162676,9.5055088 11.115559,9.4666657 11.093392,9.3994992 C 11.078803,9.3552927 11.062958,9.3371753 11.042431,9.3412255 C 11.018851,9.3458782 11.013942,9.3639126 11.018881,9.427747 C 11.022312,9.472102 11.036492,9.5211838 11.050394,9.5368188 C 11.094359,9.5862732 11.067858,9.7908291 11.014851,9.8111714 C 10.985045,9.8226099 10.963652,9.9093533 10.958516,10.039597 C 10.953144,10.175878 10.919796,10.327111 10.870232,10.439949 C 10.808992,10.579371 10.757,10.737049 10.733674,10.8541 C 10.72236,10.910874 10.706164,10.961614 10.697685,10.966855 C 10.679653,10.977999 10.64339,11.092443 10.597802,11.28208 C 10.579946,11.356359 10.53754,11.486008 10.503568,11.570192 C 10.469596,11.654374 10.435417,11.763767 10.427616,11.813286 C 10.419815,11.862805 10.396511,11.964094 10.37583,12.038373 C 10.355149,12.112652 10.338037,12.194089 10.337802,12.219343 C 10.33757,12.244598 10.329977,12.272959 10.32093,12.282368 C 10.311884,12.291777 10.278284,12.378973 10.246264,12.476137 C 10.180591,12.675437 10.121326,12.741383 9.9992068,12.751052 C 9.872473,12.761087 9.8192536,12.777622 9.7483461,12.828987 C 9.7037335,12.861304 9.6425475,12.885253 9.5840301,12.8933 C 9.4952881,12.905505 9.4884419,12.90344 9.4418977,12.850395 z " /> />
</svg>
