<?xml version="1.0" encoding="UTF-8" standalone="no"?>
<svg xmlns:svg="http://www.w3.org/2000/svg" xmlns="http://www.w3.org/2000/svg" version="1.0" viewBox="-18 -16 36 37">
  <defs>
    <clipPath id="clip_white">
      <path d="M 0,0 L -10,-5 L -10,5 L 0,0 z M 0,0 L 0.1,-10 L 8.1,-10 L 0,0 z " id="path6" />
    </clipPath>
    <clipPath id="clip_color">
      <path d="M 0,0 L -10,-10 L -10,10 L 0,0 z M 0,0 L 0,-10 L 10,-10 L 0,0 z " id="path9" />
    </clipPath>
  </defs>
  <path d="M 4.1016951,-1.7372881 C 4.1016951,2.1567875 0.92974625,5.3135595 -2.983051,5.3135595 C -6.8958481,5.3135595 -10.067797,2.1567875 -10.067797,-1.7372881 C -10.067797,-5.6313637 -6.8958481,-8.7881357 -2.9830509,-8.7881357 C 0.92974625,-8.7881357 4.1016951,-5.6313637 4.1016951,-1.7372881 z " transform="matrix(2.477719,0,0,2.477719,7.391162,6.804512)"  style="fill:#CCC; stroke:#999; stroke-width:0.36" />
  <path id="europe" style="fill:#E8E8E8; stroke:#666; stroke-width:0.3px" d="M 1.5957289,13.784014 C 1.5113089,13.699594 1.4304489,13.653954 1.3653189,13.653954 C 1.3101289,13.653954 1.1584989,13.595424 1.0283589,13.523894 C 0.8982289,13.452364 0.7531089,13.393834 0.7058889,13.393834 C 0.5710089,13.393834 0.4756389,13.264984 0.5193789,13.141874 C 0.5478589,13.061754 0.5788489,13.040814 0.6689589,13.040814 C 0.7314689,13.040814 0.8111289,13.017194 0.8459889,12.988334 C 0.9008789,12.942864 0.9270589,12.944294 1.0417789,12.998994 C 1.1930289,13.071124 1.5714289,13.049414 1.7076589,12.960784 C 1.7501489,12.933144 1.8253989,12.912394 1.8748789,12.914674 C 1.9572189,12.918464 2.1421189,12.866154 2.2807089,12.799854 C 2.3113689,12.785194 2.3415989,12.721824 2.3478789,12.659044 C 2.3549689,12.588204 2.3930189,12.522804 2.4481589,12.486674 L 2.5370089,12.428464 L 2.4616889,12.251554 C 2.3969489,12.099504 2.3459389,11.986354 2.2060489,11.684464 C 2.1918389,11.653814 2.1401289,11.623774 2.0911089,11.617714 C 1.9200689,11.596554 1.7976289,11.528494 1.7976289,11.454554 C 1.7976289,11.308494 1.7242989,11.229054 1.6104789,11.251824 C 1.5269289,11.268534 1.4995989,11.257574 1.4813389,11.200044 C 1.4677189,11.157114 1.4247789,11.126874 1.3770689,11.126604 C 1.3255489,11.126314 1.2653489,11.078874 1.2120189,10.996544 C 1.1287589,10.868024 1.1092889,10.860594 0.8314689,10.851434 C 0.7341389,10.848224 0.4861389,10.701524 0.3779789,10.583184 C 0.3431589,10.545094 0.2797189,10.480484 0.23698887,10.439604 C 0.19425887,10.398724 0.10678887,10.310934 0.042618868,10.244514 C -0.021551132,10.178094 -0.10399113,10.123744 -0.14058113,10.123744 C -0.17717113,10.123744 -0.23146113,10.077754 -0.26122113,10.021554 C -0.29099113,9.9653439 -0.37310113,9.8742039 -0.44370113,9.8190039 C -0.52939113,9.7520039 -0.57850113,9.6778839 -0.59143113,9.5960439 C -0.61537113,9.4444839 -0.72763114,9.1187739 -0.77851114,9.0532439 C -0.79926114,9.0265139 -0.86774113,8.9804939 -0.93068113,8.9509639 C -0.99362113,8.9214439 -1.1203711,8.8559839 -1.2123411,8.8055139 C -1.3043111,8.7550439 -1.4077511,8.7132839 -1.4422011,8.7127039 C -1.4766511,8.7121339 -1.5953611,8.8036339 -1.7059911,8.9160439 C -1.8279411,9.0399639 -1.9390711,9.1204239 -1.9882711,9.1204239 C -2.1244511,9.1204239 -2.3004811,9.2155239 -2.4691011,9.3801839 C -2.7119811,9.6173639 -2.9243211,9.6256839 -3.2147111,9.4093939 C -3.2634511,9.3730839 -3.3564611,9.3433839 -3.4214011,9.3433839 C -3.4863311,9.3433839 -3.6086911,9.3099339 -3.6932911,9.2690639 C -3.8849911,9.1764439 -3.8901311,9.1765739 -4.0567711,9.2783539 C -4.3070311,9.4311939 -4.3709511,9.5122239 -4.3709511,9.6766339 C -4.3709511,9.7595939 -4.3502011,9.8606839 -4.3248511,9.9012839 C -4.2880311,9.9602339 -4.2882911,9.9903739 -4.3261111,10.050934 C -4.3521511,10.092644 -4.3637611,10.142464 -4.3519111,10.161644 C -4.3030111,10.240754 -4.4237111,10.344964 -4.7502011,10.505524 C -4.9673111,10.612304 -5.1701811,10.684114 -5.2964711,10.698894 C -5.5294511,10.726164 -5.7087111,10.807844 -5.7087111,10.886724 C -5.7087111,10.916994 -5.8422111,11.079604 -6.0053811,11.248084 C -6.3694711,11.624034 -6.4325511,11.740474 -6.3792911,11.938274 C -6.3580911,12.017004 -6.3072311,12.111754 -6.2662711,12.148824 C -6.1598211,12.245164 -6.1718811,12.274404 -6.3507211,12.353514 C -6.4381411,12.392174 -6.5429511,12.462304 -6.5836411,12.509354 C -6.7339511,12.683124 -6.8262311,12.839254 -6.8157311,12.901994 C -6.8066711,12.956124 -6.8297411,12.964544 -6.9592211,12.954364 C -7.1645111,12.938224 -7.3135611,13.020704 -7.4577011,13.230184 C -7.5604311,13.379504 -7.5874111,13.397864 -7.6731211,13.376784 C -7.7270111,13.363524 -7.8045411,13.355014 -7.8454211,13.357864 C -7.9862311,13.367694 -8.0318011,13.363854 -8.2170211,13.326574 C -8.8536411,13.198424 -8.8589311,13.197944 -8.9477811,13.260174 C -8.9943811,13.292814 -9.1019811,13.319514 -9.1869011,13.319514 C -9.2817011,13.319514 -9.3599411,13.341974 -9.3895907,13.377704 C -9.4161607,13.409704 -9.4846207,13.460064 -9.5417407,13.489594 C -9.6392907,13.540044 -9.6525307,13.537074 -9.7600907,13.440694 C -9.8668007,13.345074 -9.9200307,13.215934 -9.9708507,12.929334 C -9.9981007,12.775644 -10.191091,12.582304 -10.346301,12.553184 C -10.416371,12.540044 -10.532581,12.547364 -10.604551,12.569444 C -10.718331,12.604364 -10.75973,12.597294 -10.92167,12.515234 C -11.03728,12.456644 -11.14811,12.426744 -11.2139,12.436404 C -11.33972,12.454874 -11.34175,12.445414 -11.24583,12.288084 C -11.20525,12.221524 -11.16193,12.096114 -11.14955,12.009384 C -11.13718,11.922654 -11.10012,11.777584 -11.06721,11.687014 C -11.03274,11.592184 -11.02241,11.517064 -11.04285,11.509914 C -11.30275,11.419044 -11.36838,11.256924 -11.2444,11.012094 C -11.1988,10.922044 -11.10669,10.794704 -11.03972,10.729114 C -10.97274,10.663524 -10.86459,10.496304 -10.79939,10.357514 C -10.73419,10.218724 -10.656031,10.077244 -10.625701,10.043114 C -10.590781,10.003814 -10.558851,9.8462539 -10.538621,9.6132639 C -10.521041,9.4109639 -10.480861,9.1713339 -10.449321,9.0807439 C -10.417771,8.9901539 -10.391721,8.8794039 -10.391421,8.8346239 C -10.391131,8.7898439 -10.374161,8.7428739 -10.353721,8.7302439 C -10.286621,8.6887639 -10.314841,8.5989939 -10.405851,8.5643939 C -10.454961,8.5457239 -10.505901,8.5130339 -10.519051,8.4917639 C -10.565801,8.4161239 -10.464871,8.3062039 -10.325401,8.2808539 C -10.249011,8.2669639 -10.107631,8.2160839 -10.011231,8.1677739 C -9.7662207,8.0449939 -9.5970207,8.0509539 -9.4972707,8.1858639 C -9.4280107,8.2795439 -9.3817007,8.2971439 -9.0966911,8.3381239 C -8.8971911,8.3668139 -8.6824111,8.4273239 -8.5328811,8.4969739 C -8.1392711,8.6803039 -8.0111611,8.7159939 -7.8392411,8.6902139 C -7.7117511,8.6710939 -7.6623311,8.6815839 -7.5819111,8.7448439 C -7.5271711,8.7879039 -7.4349111,8.8231439 -7.3769011,8.8231439 C -7.3188911,8.8231439 -7.1979111,8.8588539 -7.1080611,8.9025039 C -6.9233811,8.9922339 -6.7259711,8.9783539 -6.6267111,8.8686739 C -6.5699811,8.8059839 -6.3698111,8.1918239 -6.3696411,8.0799339 C -6.3694811,7.9762639 -6.2590311,7.6156939 -6.2159811,7.5782739 C -6.1914911,7.5569939 -6.1732111,7.4320339 -6.1732111,7.2858744 C -6.1732111,7.0376044 -6.1766511,7.0282644 -6.2989311,6.9443944 C -6.4429811,6.8455944 -6.5632411,6.6095044 -6.5376711,6.4757244 C -6.5270611,6.4202244 -6.5432011,6.3655944 -6.5789911,6.3358944 C -6.6112911,6.3090844 -6.6377111,6.2390344 -6.6377111,6.1802244 C -6.6377111,6.1182444 -6.6576611,6.0732944 -6.6851711,6.0732944 C -6.7112711,6.0732944 -6.7875611,6.0231244 -6.8546911,5.9618144 C -6.9218211,5.9004944 -7.0049711,5.8499644 -7.0394811,5.8495044 C -7.0739811,5.8490544 -7.1440211,5.8159744 -7.1951211,5.7760144 C -7.2462111,5.7360444 -7.3250511,5.7029744 -7.3703211,5.7025144 C -7.4703911,5.7015144 -7.5567011,5.5653344 -7.4958411,5.5044744 C -7.4363511,5.4449744 -7.4463211,5.3300944 -7.5109811,5.3300944 C -7.5943311,5.3300944 -7.5782311,5.1901144 -7.4917211,5.1626544 C -7.4504711,5.1495644 -7.3376011,5.1428044 -7.2408911,5.1476344 C -7.1441811,5.1524644 -7.0254411,5.1435644 -6.9770211,5.1278644 C -6.8715311,5.0936544 -6.7227711,5.1634144 -6.6915711,5.2617244 C -6.6760511,5.3106144 -6.6335311,5.3300944 -6.5423111,5.3300944 C -6.4721511,5.3300944 -6.4147511,5.3454344 -6.4147511,5.3641944 C -6.4147511,5.3829544 -6.3436811,5.3929344 -6.2568211,5.3863644 L -6.0988911,5.3744344 L -6.1052311,5.1385944 C -6.1087211,5.0088744 -6.1170811,4.8525844 -6.1238111,4.7912644 C -6.1345311,4.6936144 -6.1233511,4.6783244 -6.0336511,4.6680144 C -5.9605911,4.6596044 -5.9252211,4.6755744 -5.9102011,4.7237544 C -5.8659911,4.8655644 -5.8313211,4.8933544 -5.6066811,4.9670044 C -5.3591511,5.0481544 -5.2627911,5.0249444 -5.2627911,4.8841644 C -5.2627911,4.7906744 -5.1905511,4.7431644 -4.9796311,4.6979244 C -4.8777811,4.6760844 -4.7434811,4.6272244 -4.6812011,4.5893444 C -4.5822011,4.5291344 -4.5652311,4.4939644 -4.5461911,4.3095744 C -4.5194711,4.0506544 -4.4864011,4.0082744 -4.2866411,3.9769444 C -4.0685611,3.9427544 -3.6287611,3.7606644 -3.6282011,3.7043344 C -3.6279511,3.6787844 -3.6116711,3.6578844 -3.5920311,3.6578844 C -3.4863511,3.6578844 -3.1268011,3.1245744 -3.0939411,2.9190944 C -3.0737811,2.7929944 -3.0524211,2.7632244 -2.9678111,2.7432944 C -2.9118011,2.7301044 -2.8221911,2.6786444 -2.7686911,2.6289544 C -2.6419111,2.5111944 -2.2814511,2.4136644 -2.1778611,2.4691044 C -2.1165311,2.5019244 -2.0885111,2.4927344 -2.0201211,2.4173344 C -1.9743811,2.3669144 -1.8826011,2.3147144 -1.8161611,2.3013444 C -1.7087511,2.2797344 -1.6881511,2.2897044 -1.6303611,2.3912444 C -1.5495111,2.5333044 -1.4726511,2.5393644 -1.4718911,2.4037344 C -1.4712211,2.2832044 -1.4405011,2.2305744 -1.3516911,2.1978044 C -1.2908511,2.1753644 -1.2640411,2.0777144 -1.2832311,1.9485244 C -1.2877911,1.9178644 -1.2905311,1.8541244 -1.2893111,1.8068844 C -1.2881011,1.7596444 -1.3135711,1.6698244 -1.3459111,1.6072844 C -1.3844711,1.5327344 -1.3966411,1.4505144 -1.3812611,1.3685444 C -1.3539811,1.2231344 -1.4040211,1.1087744 -1.5095811,1.0752744 C -1.6009511,1.0462744 -1.6076411,0.91497443 -1.5209711,0.85161443 C -1.4619011,0.80841443 -1.4620611,0.79938443 -1.5234511,0.70568443 C -1.5797411,0.61978443 -1.5830411,0.58144443 -1.5470411,0.43176443 C -1.5240111,0.33605443 -1.4956311,0.21593443 -1.4839611,0.16483442 C -1.4505411,0.018424425 -1.3616911,-0.058125572 -1.2251611,-0.058125572 C -1.1493211,-0.058125572 -1.0774811,-0.085455572 -1.0409011,-0.12822557 C -0.86093113,-0.33859557 -0.80160114,-0.39256557 -0.75023114,-0.39256557 C -0.67947114,-0.39256557 -0.63803114,-0.23849557 -0.67261114,-0.10388557 C -0.68694114,-0.048065572 -0.70726114,0.068964425 -0.71776114,0.15615442 C -0.73588114,0.30671443 -0.73103114,0.31672443 -0.62157113,0.35488443 C -0.44234113,0.41736443 -0.48722113,0.61075443 -0.68095114,0.61075443 C -0.74985114,0.61075443 -0.76642114,0.63099443 -0.76642114,0.71513443 C -0.76642114,0.77254443 -0.79097114,0.85197443 -0.82098114,0.89164443 C -0.90206113,0.99885443 -0.89061113,1.0169044 -0.75540114,0.99496443 C -0.60733113,0.97093443 -0.53854113,1.0378044 -0.53047113,1.2135844 C -0.52197113,1.3986144 -0.65704114,1.4015744 -0.82335114,1.2200044 C -0.89367113,1.1432344 -0.96034113,1.0895744 -0.97152113,1.1007544 C -0.98270113,1.1119344 -0.99548113,1.2090544 -0.99991113,1.3165644 C -1.0067611,1.4830244 -0.99554113,1.5202944 -0.92435113,1.5675944 C -0.87730113,1.5988544 -0.84074113,1.6611544 -0.84074113,1.7100844 C -0.84074113,1.7796644 -0.81186114,1.8047944 -0.69608114,1.8359644 C -0.61651113,1.8573944 -0.52623113,1.8652544 -0.49545113,1.8534444 C -0.40818113,1.8199544 -0.38035113,1.9081044 -0.45288113,1.9882544 C -0.52561113,2.0686144 -0.52731113,2.0651144 -0.38578113,2.1258844 C -0.29410113,2.1652544 -0.27779113,2.1604044 -0.22358113,2.0776644 C -0.19043113,2.0270744 -0.13084113,1.9856844 -0.091171132,1.9856844 C -0.051491132,1.9856844 0.028888868,1.9332244 0.087448868,1.8691044 C 0.16169887,1.7878144 0.21665887,1.7584744 0.26903887,1.7721744 C 0.3152289,1.7842544 0.3686589,1.7647444 0.4077689,1.7215344 C 0.4926089,1.6277844 0.5667089,1.6327744 0.6055889,1.7348544 C 0.6282489,1.7943544 0.6202989,1.8378644 0.5779989,1.8857644 C 0.5263789,1.9442144 0.5256989,1.9575744 0.5728189,1.9873844 C 0.6026689,2.0062544 0.6396289,2.0219644 0.6549589,2.0222744 C 0.6702889,2.0225844 0.6828289,2.0453344 0.6828289,2.0728244 C 0.6828289,2.1003144 0.7149389,2.1518644 0.7541889,2.1873844 C 0.8220989,2.2488444 0.8273689,2.2485844 0.8630689,2.1818644 C 0.9046489,2.1041644 1.2087989,1.9449844 1.4560089,1.8715544 C 1.5541989,1.8423844 1.6452689,1.7829644 1.6916789,1.7177844 C 1.7831689,1.5893044 2.2353689,1.3539644 2.3907689,1.3539644 C 2.4835389,1.3539644 2.5119689,1.3762044 2.5570189,1.4840244 C 2.6049589,1.5987744 2.6272189,1.6140844 2.7461789,1.6140844 C 2.9085189,1.6140844 3.0982389,1.4478644 3.0982389,1.3056244 C 3.0982389,1.1794744 3.1626289,1.1376744 3.3778789,1.1240844 C 3.5555389,1.1128744 3.5627889,1.1080744 3.5641489,1.0009344 C 3.5649289,0.93962443 3.5422889,0.83093443 3.5138589,0.75939443 C 3.3567689,0.36427443 3.2893389,-0.077305572 3.3600289,-0.24797557 C 3.3854789,-0.30940557 3.4102189,-0.42924557 3.4150189,-0.51427557 C 3.4220289,-0.63843557 3.4481389,-0.68925557 3.5475789,-0.77226557 C 3.6156789,-0.82912557 3.6914389,-0.87564557 3.7159189,-0.87564557 C 3.7403989,-0.87564557 3.8561489,-0.78367557 3.9731389,-0.67126557 C 4.0901289,-0.55885557 4.2141389,-0.46688557 4.2487089,-0.46688557 C 4.3431789,-0.46688557 4.4731589,-0.62535557 4.4731589,-0.74053557 C 4.4731589,-0.79643557 4.4492289,-0.88844557 4.4199889,-0.94498556 C 4.3907489,-1.0015356 4.3697989,-1.1247756 4.3734389,-1.2188456 C 4.3808489,-1.4103156 4.3513589,-1.4644256 4.2743889,-1.4005456 C 4.1710089,-1.3147556 4.0094889,-1.4694256 3.9516789,-1.7095757 C 3.9366289,-1.7720857 3.9123889,-1.8521057 3.8978089,-1.8873957 C 3.8784789,-1.9341957 3.8965889,-1.9630757 3.9646989,-1.9941157 C 4.0160689,-2.0175157 4.0659989,-2.0668657 4.0756489,-2.1037757 C 4.0868089,-2.1464657 4.1624189,-2.1914457 4.2834289,-2.2273857 C 4.3880689,-2.2584557 4.5107189,-2.3098257 4.5559989,-2.3415457 C 4.6112089,-2.3802057 4.7304989,-2.4004357 4.9180589,-2.4029157 C 5.3025489,-2.4080057 5.3835789,-2.4349157 5.3835789,-2.5575257 C 5.3835789,-2.6181857 5.4177889,-2.6818057 5.4724289,-2.7227757 C 5.5212989,-2.7594157 5.5984589,-2.8270157 5.6439089,-2.8730057 C 5.6980289,-2.9277557 5.7710289,-2.9566157 5.8554389,-2.9566157 C 6.0326589,-2.9566157 6.0538689,-2.9935757 5.9224989,-3.0734657 C 5.8340289,-3.1272657 5.7933489,-3.1328157 5.7228489,-3.1006957 C 5.6525789,-3.0686757 5.6138989,-3.0737357 5.5353089,-3.1252257 C 5.4808589,-3.1609057 5.4197289,-3.2210557 5.3994889,-3.2588857 C 5.3644089,-3.3244357 5.3557589,-3.3233157 5.2159289,-3.2350457 C 5.1352289,-3.1840957 5.0374689,-3.1424157 4.9986889,-3.1424157 C 4.9599089,-3.1424157 4.9077289,-3.1177757 4.8827289,-3.0876557 C 4.8577389,-3.0575357 4.7804389,-3.0222357 4.7109689,-3.0091957 C 4.6174189,-2.9916557 4.5846389,-2.9662557 4.5846389,-2.9113457 C 4.5846389,-2.8628857 4.5665189,-2.8441357 4.5323889,-2.8572257 C 4.5036489,-2.8682557 4.4512789,-2.8453957 4.4160089,-2.8064157 C 4.3807289,-2.7674357 4.3173689,-2.7245957 4.2751989,-2.7112157 C 4.2330289,-2.6978257 4.1205189,-2.6388757 4.0251589,-2.5802057 C 3.8127189,-2.4494857 3.6965589,-2.4456657 3.5676389,-2.5651357 C 3.4748489,-2.6511357 3.3091689,-2.7133557 3.1007389,-2.7404657 C 2.9837889,-2.7556857 2.9402989,-2.8951457 2.9485189,-3.2286057 C 2.9527189,-3.3991557 2.9367289,-3.5095357 2.8996089,-3.5661757 C 2.8692789,-3.6124656 2.7999089,-3.7794456 2.7454389,-3.9372256 C 2.6532989,-4.2042056 2.6504889,-4.2303156 2.7049489,-4.3134356 C 2.7371289,-4.3625556 2.7593589,-4.4403856 2.7543389,-4.4863856 C 2.7479989,-4.5445256 2.7678789,-4.5745456 2.8195289,-4.5848456 C 2.9380989,-4.6084756 2.9867489,-4.6669856 2.9867489,-4.7859456 C 2.9867489,-4.8548356 3.0321889,-4.9541956 3.1067489,-5.0483356 C 3.2203889,-5.1918056 3.3428289,-5.4647056 3.3853589,-5.6692956 C 3.3959789,-5.7203956 3.4560889,-5.8165756 3.5189289,-5.8830456 C 3.6076989,-5.9769256 3.6232589,-6.0138156 3.5886689,-6.0484056 C 3.5641889,-6.0728956 3.5441589,-6.1364056 3.5441589,-6.1895456 C 3.5441589,-6.2970056 3.4834989,-6.3753456 3.4002989,-6.3753456 C 3.3702289,-6.3753456 3.3162389,-6.4019356 3.2803189,-6.4344456 C 3.2144489,-6.4940556 3.1255089,-6.4809656 2.8566889,-6.3721056 C 2.8158189,-6.3555556 2.7501289,-6.3369756 2.7107289,-6.3308056 C 2.6675689,-6.3240556 2.6274589,-6.2761556 2.6098589,-6.2103356 C 2.5937889,-6.1502456 2.5539389,-6.0861356 2.5213089,-6.0678756 C 2.4786789,-6.0440156 2.4685289,-6.0048356 2.4852489,-5.9287056 C 2.5006789,-5.8584356 2.4871189,-5.7900656 2.4449989,-5.7257756 C 2.3831289,-5.6313556 2.3841589,-5.6260156 2.4842589,-5.5215256 L 2.5870589,-5.4142256 L 2.5082089,-5.2513256 C 2.4648389,-5.1617356 2.4293489,-5.0610756 2.4293489,-5.0276356 C 2.4293489,-4.9647756 2.1835289,-4.7031356 2.1244689,-4.7031356 C 2.1061289,-4.7031356 2.0675089,-4.6466356 2.0386589,-4.5775856 C 2.0097989,-4.5085256 1.9597389,-4.4418756 1.9273989,-4.4294656 C 1.8950489,-4.4170556 1.8440189,-4.3523156 1.8139789,-4.2856056 C 1.7839389,-4.2188956 1.7440989,-4.1392356 1.7254389,-4.1085756 C 1.7067789,-4.0779156 1.6818589,-4.0219856 1.6700589,-3.9842756 C 1.6582689,-3.9465656 1.6152489,-3.9069956 1.5744789,-3.8963356 C 1.4978289,-3.8762856 1.4744089,-3.7945556 1.5346489,-3.7573256 C 1.5892689,-3.7235656 1.5674689,-3.3334057 1.5097089,-3.3112357 C 1.4724889,-3.2969557 1.4697289,-3.2739457 1.4987489,-3.2197257 C 1.5200689,-3.1798957 1.5375989,-3.0918557 1.5377189,-3.0240857 C 1.5378289,-2.9563157 1.5553389,-2.8381657 1.5766189,-2.7615257 C 1.6086089,-2.6463557 1.6320089,-2.6221757 1.7114989,-2.6221757 C 1.7644089,-2.6221757 1.8460189,-2.5845457 1.8928589,-2.5385657 C 2.0417389,-2.3924157 2.0740689,-2.3610557 2.1785189,-2.2614357 C 2.3015289,-2.1441157 2.3042589,-2.1132057 2.2013389,-2.0036457 C 2.1575989,-1.9570957 2.1171589,-1.8586257 2.1112589,-1.7843457 C 2.1000689,-1.6432357 2.0071889,-1.5073656 1.9219289,-1.5073656 C 1.8944389,-1.5073656 1.8719489,-1.4897956 1.8719489,-1.4683156 C 1.8719489,-1.4468356 1.8135889,-1.3757656 1.7422689,-1.3103856 L 1.6125889,-1.1915056 L 1.6029189,-0.57836557 C 1.5939889,-0.012015572 1.5982089,0.033944425 1.6582789,0.023854425 C 1.7283289,0.012094425 1.7371089,0.076194425 1.6877789,0.23915443 L 1.6596589,0.33205443 L 1.6310289,0.22714443 C 1.5941689,0.092044425 1.5343289,0.14599442 1.4824189,0.36112443 L 1.4446089,0.51785443 L 1.2387889,0.53643443 C 1.1096089,0.54809443 0.9919789,0.58508443 0.9229289,0.63576443 C 0.8273989,0.70585443 0.8128889,0.74009443 0.8128889,0.89540443 L 0.8128889,1.0743144 L 0.6156889,1.1058244 C 0.3723489,1.1447144 0.3112289,1.1234044 0.3112289,0.99966443 C 0.3112289,0.88826443 0.25072887,0.75939443 0.19843887,0.75939443 C 0.17871887,0.75939443 0.16258887,0.79570443 0.16258887,0.84008443 C 0.16258887,0.88445443 0.13454887,0.95174443 0.10028887,0.98960443 C 0.052948868,1.0419144 0.048368868,1.0688044 0.081198868,1.1016444 C 0.11403887,1.1344744 0.11039887,1.1603344 0.066028868,1.2093644 C 0.033918868,1.2448444 -0.0013811319,1.3411444 -0.012411132,1.4233744 C -0.028851132,1.5459444 -0.051481132,1.5795044 -0.13811113,1.6097044 C -0.22294113,1.6392744 -0.26047113,1.6329844 -0.32858113,1.5777644 C -0.43016113,1.4954044 -0.40166113,1.4556044 -0.23751113,1.4505744 C -0.068821132,1.4454144 -0.068441132,1.3192044 -0.23689113,1.2450644 C -0.33114113,1.2035744 -0.35766113,1.1693844 -0.35766113,1.0893244 C -0.35766113,1.0329044 -0.37438113,0.97641443 -0.39482113,0.96377443 C -0.44992113,0.92972443 -0.43983113,0.87087443 -0.37889113,0.87087443 C -0.34969113,0.87087443 -0.30371113,0.84888443 -0.27670113,0.82199443 C -0.24969113,0.79511443 -0.15076113,0.72815443 -0.056861132,0.67320443 C 0.037388868,0.61806443 0.14425887,0.51689443 0.18168887,0.44739443 L 0.24948887,0.32148443 L 0.14100887,0.17813442 C -0.0071411319,-0.017635572 -0.096031132,-0.18058557 -0.17031113,-0.39256557 C -0.22291113,-0.54269557 -0.22328113,-0.54992557 -0.18794113,-0.73852557 C -0.16187113,-0.87761557 -0.16329113,-0.87989557 -0.26870113,-0.86858557 C -0.37150113,-0.85754557 -0.37703113,-0.86484557 -0.40064113,-1.0428656 C -0.41420113,-1.1450556 -0.41658113,-1.2830156 -0.40592113,-1.3494356 C -0.38899113,-1.4549356 -0.39687113,-1.4702056 -0.46823113,-1.4702056 C -0.52486113,-1.4702056 -0.56282113,-1.5043956 -0.59199113,-1.5816857 C -0.64054114,-1.7103157 -0.69210114,-1.7281957 -0.69210114,-1.6164057 C -0.69210114,-1.5288656 -0.75787114,-1.3903056 -0.81843114,-1.3502856 C -0.84092113,-1.3354256 -0.88748113,-1.3320256 -0.92190113,-1.3427256 C -0.96597113,-1.3564256 -1.0281811,-1.3030256 -1.1322211,-1.1621956 C -1.3200711,-0.90791557 -1.4566611,-0.79354557 -1.6478211,-0.73045557 C -1.8252211,-0.67190557 -2.0670211,-0.70248557 -2.0670211,-0.78347557 C -2.0670211,-0.81268557 -2.1152011,-0.86148557 -2.1740711,-0.89193557 C -2.2977411,-0.95588556 -2.4757811,-1.1550356 -2.4757811,-1.2294156 C -2.4757811,-1.2573456 -2.4451811,-1.3020456 -2.4077811,-1.3287556 C -2.2952211,-1.4091256 -2.2165511,-1.5584756 -2.2398411,-1.6475557 C -2.2645111,-1.7418657 -2.3458111,-1.7578057 -2.3777411,-1.6745857 C -2.4086711,-1.5939757 -2.4757811,-1.6061057 -2.4757811,-1.6923157 C -2.4757811,-1.7327157 -2.4335511,-1.7934457 -2.3819311,-1.8272657 C -2.3212211,-1.8670557 -2.2951611,-1.9110757 -2.3081411,-1.9519557 C -2.3197211,-1.9884457 -2.2965811,-2.0437557 -2.2533511,-2.0828757 C -2.1516111,-2.1749457 -2.1592511,-2.2196557 -2.2718811,-2.1913857 C -2.3726511,-2.1660957 -2.4757811,-2.2265257 -2.4757811,-2.3108657 C -2.4757811,-2.3390157 -2.4507011,-2.3620557 -2.4200411,-2.3620557 C -2.3465711,-2.3620557 -2.3497011,-2.3875057 -2.4367911,-2.4982157 C -2.4924011,-2.5689157 -2.5082311,-2.6438057 -2.5047811,-2.8199357 C -2.5023111,-2.9462057 -2.4850411,-3.0696157 -2.4663911,-3.0941757 C -2.4477411,-3.1187457 -2.4434311,-3.1733457 -2.4568111,-3.2155157 C -2.4899511,-3.3199057 -2.3449111,-3.5511757 -2.2463111,-3.5511757 C -2.2028011,-3.5511757 -2.1634211,-3.5822356 -2.1521111,-3.6254956 C -2.1412511,-3.6670056 -2.1014211,-3.6998156 -2.0618911,-3.6998156 C -2.0226011,-3.6998156 -1.9724211,-3.7408256 -1.9491011,-3.7920056 C -1.9260011,-3.8427056 -1.8757611,-3.8941356 -1.8374611,-3.9062956 C -1.7882511,-3.9219056 -1.7708211,-3.9575656 -1.7780611,-4.0277756 C -1.7869711,-4.1140356 -1.7763311,-4.1254556 -1.6974811,-4.1143056 C -1.6475111,-4.1072356 -1.5388211,-4.1217456 -1.4559411,-4.1465556 C -1.3730511,-4.1713656 -1.2824511,-4.1982456 -1.2546011,-4.2062956 C -1.2147911,-4.2178056 -1.2134911,-4.2324056 -1.2485111,-4.2746056 C -1.3110511,-4.3499556 -1.2617011,-4.4096756 -1.1469411,-4.3975356 C -1.0439911,-4.3866456 -1.0346511,-4.3987656 -0.87800113,-4.7465856 C -0.83502113,-4.8420056 -0.77387114,-4.9416556 -0.74211114,-4.9680156 C -0.71034114,-4.9943756 -0.66929114,-5.0555656 -0.65088114,-5.1039956 C -0.62239113,-5.1789256 -0.60059113,-5.1883456 -0.50458113,-5.1672656 C -0.39834113,-5.1439256 -0.39313113,-5.1479656 -0.41534113,-5.2364756 C -0.43976113,-5.3337656 -0.41508113,-5.3659256 -0.15328113,-5.5778956 C -0.043111132,-5.6670856 -0.042781132,-5.6684256 -0.12541113,-5.6916356 C -0.22522113,-5.7196756 -0.22972113,-5.7705956 -0.14699113,-5.9356956 C -0.11287113,-6.0037756 -0.068901132,-6.0919956 -0.049261132,-6.1317256 C -0.029631132,-6.1714656 -0.014381132,-6.2942556 -0.015371132,-6.4046056 C -0.017011132,-6.5872756 -0.0076511319,-6.6106956 0.089278868,-6.6663256 C 0.15741887,-6.7054256 0.19311887,-6.7543056 0.18844887,-6.8020956 C 0.18337887,-6.8540256 0.20661887,-6.8804156 0.26477887,-6.8887556 C 0.3331589,-6.8985656 0.3483889,-6.9242956 0.3483889,-7.0300056 C 0.3483889,-7.1218056 0.3766689,-7.1854656 0.4460089,-7.2497356 C 0.5290289,-7.3266656 0.5345889,-7.3436856 0.4831689,-7.3634156 C 0.4071989,-7.3925656 0.4035589,-7.4901456 0.4784489,-7.4901456 C 0.5090989,-7.4901456 0.5341889,-7.4734256 0.5341889,-7.4529856 C 0.5341889,-7.4325456 0.5602589,-7.4158256 0.5921189,-7.4158256 C 0.6239789,-7.4158256 0.6392689,-7.4332756 0.6260789,-7.4546156 C 0.5883089,-7.5157256 0.6852289,-7.6058656 0.7623889,-7.5813756 C 0.8476089,-7.5543356 0.8508689,-7.5929156 0.7708289,-7.6813556 C 0.7147289,-7.7433456 0.7148389,-7.7554556 0.7723689,-7.8432656 C 0.8547689,-7.9690156 0.8224889,-8.0089156 0.6667589,-7.9737956 C 0.5606389,-7.9498556 0.5257289,-7.9588556 0.4621789,-8.0265056 C 0.3621689,-8.1329656 0.3643589,-8.1430156 0.5025889,-8.2119756 C 0.5881089,-8.2546356 0.6327189,-8.2595156 0.6681889,-8.2300756 C 0.6948889,-8.2079156 0.7322889,-8.1994056 0.7513089,-8.2111556 C 0.7703289,-8.2229156 0.8065489,-8.2076256 0.8318089,-8.1771956 C 0.9314189,-8.0571656 1.0211989,-8.1318456 1.0668389,-8.3726956 C 1.0918789,-8.5048356 1.0841389,-8.5119856 0.9776589,-8.4549956 C 0.9189889,-8.4235956 0.9060089,-8.4287156 0.9070189,-8.4828656 C 0.9091789,-8.5983956 1.0353289,-8.7138256 1.1503189,-8.7054856 C 1.2334789,-8.6994456 1.2667089,-8.7206056 1.3086689,-8.8062956 C 1.3479189,-8.8864656 1.3513289,-8.9314556 1.3217589,-8.9788056 C 1.2753889,-9.0530556 1.2988589,-9.0880256 1.3950589,-9.0880256 C 1.4325289,-9.0880256 1.4631889,-9.0639956 1.4631889,-9.0346256 C 1.4631889,-8.9938856 1.4962189,-8.9862956 1.6025389,-9.0026356 C 1.6791789,-9.0144156 1.7753289,-9.0418556 1.8162089,-9.0636056 C 1.8570889,-9.0853656 1.9156089,-9.1039456 1.9462689,-9.1048956 C 1.9769289,-9.1058356 2.0020089,-9.1316956 2.0020089,-9.1623456 C 2.0020089,-9.1930056 1.9769289,-9.2203456 1.9462689,-9.2230956 C 1.9156089,-9.2258456 1.8696289,-9.2300256 1.8440789,-9.2323856 C 1.7739589,-9.2388556 1.7883889,-9.3403056 1.8626589,-9.3630756 C 1.9529889,-9.3907756 2.2106789,-9.3267356 2.2484189,-9.2672256 C 2.2704689,-9.2324456 2.2797389,-9.2428956 2.2801389,-9.3030056 C 2.2804589,-9.3497156 2.2541889,-9.4284056 2.2217689,-9.4778856 C 2.1525589,-9.5835056 2.1784089,-9.6452056 2.2921989,-9.6459956 C 2.4172489,-9.6468756 2.4593589,-9.6901456 2.4727789,-9.8315556 C 2.4824289,-9.933196 2.5031989,-9.963866 2.5686989,-9.973166 C 2.6224289,-9.980796 2.6523089,-10.010676 2.6523089,-10.056776 C 2.6523089,-10.096236 2.6680489,-10.128516 2.6872789,-10.128516 C 2.7363589,-10.128516 2.7671089,-10.069896 2.7349089,-10.037696 C 2.7201389,-10.022926 2.7034989,-9.957886 2.6979389,-9.8931656 C 2.6543689,-9.3860756 2.6754789,-9.3145656 2.7660089,-9.6625356 C 2.8454389,-9.967816 2.8952189,-10.031346 2.9301989,-9.8720656 C 2.9723289,-9.6802856 3.0610789,-9.7273056 3.0610789,-9.941406 C 3.0610789,-10.089766 3.0760889,-10.133936 3.1377689,-10.166946 C 3.2530889,-10.228656 3.3208389,-10.155086 3.2950389,-9.996146 C 3.2810789,-9.910126 3.2888589,-9.8683956 3.3188389,-9.8683956 C 3.3448289,-9.8683956 3.3545089,-9.8962756 3.3421089,-9.935376 C 3.3304089,-9.972206 3.3444989,-10.034696 3.3733989,-10.074226 C 3.4248189,-10.144546 3.4276289,-10.144596 3.5029389,-10.076436 C 3.5631489,-10.021946 3.5913189,-10.016236 3.6322689,-10.050226 C 3.6731689,-10.084166 3.7139589,-10.076356 3.8187689,-10.014516 C 3.9822289,-9.918076 3.9857789,-9.8698156 3.8401389,-9.7241756 C 3.7408289,-9.6248656 3.7330289,-9.6023456 3.7747589,-9.5355156 C 3.8256689,-9.4539956 3.8971589,-9.4366456 3.9343389,-9.4967856 C 3.9469689,-9.5172256 3.9992189,-9.5339456 4.0504489,-9.5339456 C 4.1757889,-9.5339456 4.2873589,-9.5977656 4.2873589,-9.6694556 C 4.2873589,-9.7169856 4.3136089,-9.7231156 4.4267089,-9.7019956 C 4.5867389,-9.6720956 4.6003489,-9.6637556 4.5697389,-9.6142356 C 4.5574589,-9.5943556 4.5117389,-9.5874156 4.4681489,-9.5988156 C 4.4108289,-9.6138056 4.3939389,-9.6051256 4.4071489,-9.5674556 C 4.4193789,-9.5325656 4.4756689,-9.5176356 4.5776089,-9.5222356 C 4.6989889,-9.5277056 4.7344289,-9.5145456 4.7526289,-9.4572056 C 4.7814389,-9.3664456 4.8149389,-9.3661856 4.8712089,-9.4562956 C 4.9739789,-9.6208456 5.6944989,-9.5825856 6.0508089,-9.3936456 C 6.1130289,-9.3606556 6.2977189,-9.3129056 6.4612189,-9.2875456 C 6.9317489,-9.2145556 6.9821889,-9.1939456 7.1454689,-9.0080056 C 7.2905889,-8.8427556 7.2973289,-8.8241356 7.2973289,-8.5881056 C 7.2973289,-8.3106256 7.2505389,-8.1953856 7.0682489,-8.0237756 C 6.8818789,-7.8483456 6.8174889,-7.8367556 5.8852389,-7.8108856 C 5.4347989,-7.7983856 5.3420789,-7.8115356 5.2088489,-7.9067956 C 5.1740689,-7.9316656 5.1337589,-7.9401656 5.1192789,-7.9256856 C 5.0730089,-7.8794256 5.2233289,-7.7512556 5.3702689,-7.7116856 C 5.4484289,-7.6906456 5.5291589,-7.6420556 5.5496789,-7.6037156 C 5.5716189,-7.5627256 5.6466689,-7.5239156 5.7318389,-7.5095256 C 5.8115089,-7.4960656 5.9112889,-7.4528256 5.9535689,-7.4134256 C 6.0292089,-7.3429656 6.1007589,-7.0987056 6.0582189,-7.0561756 C 6.0462589,-7.0442156 6.0935189,-6.9677856 6.1632389,-6.8863256 C 6.2329589,-6.8048756 6.3008189,-6.6890156 6.3140289,-6.6288756 C 6.3415189,-6.5037256 6.4710489,-6.4367256 6.6154289,-6.4729556 C 6.6799889,-6.4891656 6.7417089,-6.4720056 6.8157289,-6.4172856 C 7.0317189,-6.2575856 7.3716489,-6.3400356 7.3716489,-6.5521256 C 7.3716489,-6.6498956 7.2673589,-6.7580356 7.1996289,-6.7304956 C 7.1716089,-6.7191056 7.1268489,-6.7008856 7.1001789,-6.6900056 C 7.0734989,-6.6791256 6.9808789,-6.7215056 6.8943489,-6.7841856 C 6.7455789,-6.8919456 6.7383889,-6.9056456 6.7619889,-7.0362156 C 6.7757089,-7.1121556 6.7919589,-7.1801356 6.7980989,-7.1872756 C 6.8042389,-7.1944256 6.8659389,-7.1815656 6.9352089,-7.1587056 C 7.0930589,-7.1066056 7.6268689,-7.0805556 7.6534989,-7.1236456 C 7.6643889,-7.1412756 7.7141289,-7.1557056 7.7640189,-7.1557056 C 7.9388689,-7.1557056 7.8366389,-7.3585756 7.5926989,-7.4956756 C 7.5106989,-7.5417656 7.4344989,-7.6157756 7.4233689,-7.6601456 C 7.3982689,-7.7601256 7.4994289,-8.1115456 7.5784389,-8.1988456 C 7.6105989,-8.2343956 7.6484689,-8.3442356 7.6625889,-8.4429356 C 7.6875189,-8.6171956 7.6925489,-8.6231456 7.8365189,-8.6483356 C 7.9540189,-8.6689056 8.0040589,-8.6592056 8.0776889,-8.6016056 C 8.2761489,-8.4463256 8.5715789,-8.2629456 8.6842589,-8.2250756 C 8.8739689,-8.1613256 8.8952089,-8.1284556 8.8952089,-7.8986256 C 8.8952089,-7.7057956 8.9053789,-7.6779256 8.9973989,-7.6184856 C 9.1132889,-7.5436356 9.4194487,-7.2803756 9.7752687,-6.9496256 L 10.016949,-6.7249756 L 10.045409,-6.4665456 C 10.062559,-6.3109056 10.105459,-6.1563956 10.153289,-6.0780656 C 10.196959,-6.0065256 10.233119,-5.9061956 10.233649,-5.8551056 C 10.235499,-5.6749456 10.385729,-5.4330356 10.68858,-5.1225456 C 10.96665,-4.8374556 10.99532,-4.7944156 11.00087,-4.6536956 C 11.00424,-4.5684856 11.02102,-4.3370056 11.03816,-4.1392956 C 11.07287,-3.7391156 11.04172,-3.7941356 11.51836,-3.2910557 C 11.7202,-3.0780257 11.79809,-2.9641957 11.84893,-2.8079757 C 11.88552,-2.6955657 11.95671,-2.5212357 12.00713,-2.4205857 C 12.09867,-2.2378557 12.09872,-2.2372557 12.03439,-2.0247957 C 11.9882,-1.8722457 11.97754,-1.7609857 11.99673,-1.6318157 C 12.03911,-1.3465956 12.27309,-0.84372557 12.47093,-0.61264557 L 12.772097,0.16165896 C 12.772097,0.16165896 13.111795,1.1450435 13.112317,2.1515513 C 13.112839,3.1580591 12.961817,2.6356921 12.650467,3.6206556 C 12.634742,3.6704046 12.39967,3.9879644 12.34046,4.0783244 C 12.30947,4.1256144 12.17662,4.2172344 12.04523,4.2819144 C 11.89473,4.3560044 11.79055,4.4341844 11.76366,4.4932044 C 11.74018,4.5447344 11.70432,4.5868844 11.68397,4.5868844 C 11.66362,4.5868844 11.62102,4.6370544 11.58932,4.6983644 C 11.55649,4.7618544 11.5018,4.8098444 11.46228,4.8098444 C 11.42411,4.8098444 11.38326,4.8349344 11.3715,4.8655844 C 11.35973,4.8962444 11.32461,4.9213344 11.29344,4.9213344 C 11.2255,4.9213344 11.01334,5.2032344 11.01334,5.2934944 C 11.01334,5.3285444 10.97989,5.3997444 10.93902,5.4517144 C 10.83883,5.5790744 10.84346,5.6010244 10.99933,5.7378844 C 11.23519,5.9449644 11.27667,5.9500744 11.47755,5.7967444 C 11.57496,5.7223844 11.67341,5.6676844 11.69631,5.6751844 C 11.71922,5.6826944 11.74308,5.7402844 11.74933,5.8031744 C 11.76304,5.9409244 11.65152,6.0361344 11.47645,6.0361344 C 11.38223,6.0361344 11.35063,6.0590044 11.30095,6.1631944 C 11.26763,6.2330744 11.19346,6.3127044 11.13614,6.3401544 C 11.07703,6.3684544 10.98941,6.4686844 10.93372,6.5716944 C 10.81565,6.7900944 10.74165,6.8400844 10.619099,6.7842444 C 10.553339,6.7542844 10.530259,6.7139544 10.530259,6.6290444 C 10.530259,6.4204944 10.482409,6.3807744 10.196569,6.3520644 C 10.053089,6.3376644 9.9356887,6.3098444 9.9356887,6.2902544 C 9.9356887,6.2706744 10.019299,6.1662344 10.121489,6.0581844 C 10.223679,5.9501344 10.307299,5.8340844 10.307299,5.8002944 C 10.307299,5.7113744 10.082909,5.7200544 9.9128987,5.8155344 C 9.6854287,5.9433044 9.3573387,5.8426844 9.4880087,5.6852344 C 9.5226987,5.6434344 9.5166487,5.6244844 9.4587287,5.5934844 C 9.4024887,5.5633844 9.3808687,5.5670644 9.3645887,5.6094744 C 9.3529687,5.6397544 9.3115387,5.6645344 9.2725189,5.6645344 C 9.2334889,5.6645344 9.1425389,5.6891944 9.0703889,5.7193444 C 8.9577289,5.7664144 8.9354889,5.7965644 8.9127589,5.9330144 C 8.8795089,6.1326644 8.7864589,6.3705744 8.7416089,6.3705744 C 8.7228889,6.3705744 8.6916689,6.4123744 8.6722489,6.4634744 C 8.6528189,6.5145644 8.6197889,6.5563744 8.5988489,6.5563744 C 8.5502389,6.5563744 8.5492089,6.6785844 8.5974089,6.7267944 C 8.6175689,6.7469444 8.6384689,6.8453044 8.6438589,6.9453644 C 8.6526889,7.1091844 8.6436189,7.1330544 8.5527089,7.1850644 C 8.4585789,7.2389344 8.4479989,7.2378444 8.3962289,7.1690144 C 8.3447389,7.1005644 8.3406889,7.1100744 8.3404589,7.2995744 C 8.3403289,7.4119844 8.3370589,7.5624839 8.3332089,7.6340139 C 8.3293589,7.7055539 8.3393589,7.8667639 8.3554489,7.9922739 C 8.3827789,8.2054139 8.3794789,8.2221339 8.3054789,8.2456239 C 8.1911689,8.2819039 8.1402789,8.4025139 8.1645489,8.5796339 C 8.1804789,8.6957839 8.1678689,8.7607739 8.1133489,8.8434739 C 8.0283089,8.9724739 8.0229389,9.0089439 8.0889789,9.0089439 C 8.1625489,9.0089439 8.3624189,9.2371939 8.3893689,9.3519939 C 8.4163689,9.4669939 8.5759589,9.5660739 8.7354289,9.5668539 C 8.9253289,9.5677739 9.0066889,9.6067439 9.0066889,9.6967639 C 9.0066889,9.7964139 8.9450189,9.8260339 8.7342389,9.8276439 C 8.6490489,9.8282939 8.5468889,9.8533739 8.5072189,9.8833839 C 8.4675389,9.9133939 8.4039789,9.9379439 8.3659689,9.9379439 C 8.3230289,9.9379439 8.2776289,9.9839639 8.2460789,10.059464 C 8.1765189,10.225934 8.0550489,10.326954 7.9157589,10.334174 C 7.8515389,10.337494 7.7521989,10.352134 7.6950189,10.366714 C 7.6209089,10.385594 7.5782189,10.376644 7.5463789,10.335554 C 7.4767089,10.245634 7.0828189,10.238194 6.9535289,10.324354 C 6.8972889,10.361834 6.8178389,10.383754 6.7769889,10.373074 C 6.7277589,10.360194 6.6798889,10.382644 6.6350689,10.439614 C 6.5978789,10.486904 6.5268189,10.531334 6.4771689,10.538354 C 6.3872389,10.551074 6.3780889,10.584114 6.4221689,10.736884 C 6.4593789,10.865874 6.3894889,10.918394 6.1806389,10.918394 C 6.0379289,10.918394 5.9748989,10.901034 5.9388889,10.851794 C 5.8693089,10.756634 5.8109189,10.811474 5.8109189,10.972004 C 5.8109189,11.088994 5.8446189,11.146134 6.0338789,11.350024 C 6.1565089,11.482134 6.2568389,11.594704 6.2568389,11.600184 C 6.2568389,11.605664 6.2243789,11.610144 6.1847189,11.610144 C 6.1450389,11.610144 6.1006889,11.629404 6.0861389,11.652944 C 6.0468189,11.716564 6.1808689,11.797774 6.2829289,11.772164 C 6.3391489,11.758054 6.3961389,11.772444 6.4395289,11.811714 C 6.4770489,11.845664 6.5725289,11.883414 6.6516989,11.895594 C 6.8206689,11.921594 6.8885689,11.966894 6.8885689,12.053644 C 6.8885689,12.102914 6.8552289,12.115934 6.7337189,12.114124 C 6.6429289,12.112764 6.5723389,12.092184 6.5630689,12.064364 C 6.5429789,12.004044 6.2832289,11.870264 6.1861989,11.870264 C 6.0673389,11.870264 6.0576989,11.941514 6.1709989,11.982584 C 6.2284289,12.003404 6.3172289,12.038584 6.3683189,12.060744 C 6.4194189,12.082914 6.5113889,12.122764 6.5726989,12.149294 C 6.6340189,12.175824 6.7110789,12.206074 6.7439489,12.216514 C 6.8024489,12.235094 6.8764789,12.526464 6.8335989,12.569344 C 6.8224489,12.580494 6.7612289,12.551094 6.6975589,12.504024 C 6.5865889,12.421974 6.5765989,12.420904 6.4564789,12.478184 C 6.3016589,12.552024 6.3000389,12.591744 6.4463089,12.728384 C 6.5404089,12.816274 6.5506789,12.840084 6.5025189,12.858564 C 6.4700989,12.871004 6.3935689,12.863754 6.3324489,12.842444 C 6.1696589,12.785694 6.1630089,12.844694 6.3071089,13.067264 C 6.3770789,13.175344 6.4443089,13.318954 6.4565089,13.386394 C 6.4797889,13.515124 6.4578789,13.517734 6.3232589,13.402254 C 6.2362389,13.327614 6.1536189,13.368134 6.1365289,13.493824 C 6.1237389,13.587994 6.1192489,13.590934 6.0906489,13.523894 C 5.9844189,13.274854 5.8109189,13.158254 5.8109189,13.335904 C 5.8109189,13.473804 5.7512689,13.481644 5.6614789,13.355554 C 5.6033489,13.273914 5.5876689,13.214264 5.6055789,13.142894 C 5.6270689,13.057284 5.6065389,13.022954 5.4556389,12.892034 L 5.2807989,12.740364 L 5.3399889,12.625894 C 5.3725489,12.562944 5.4332989,12.502514 5.4749889,12.491614 C 5.6163089,12.454654 5.5603889,12.381794 5.4022789,12.396864 C 5.2592589,12.410504 5.2465389,12.402284 5.0585489,12.174824 C 4.9511789,12.044914 4.7916189,11.879784 4.7039789,11.807884 C 4.6163289,11.735974 4.5159989,11.616674 4.4810089,11.542754 C 4.4249389,11.424264 4.2524089,11.270254 4.1300689,11.229474 C 4.1022789,11.220204 4.0893689,11.102574 4.0923389,10.885694 C 4.0948189,10.704354 4.0808089,10.526014 4.0611889,10.489364 C 4.0372589,10.444644 4.0399689,10.399634 4.0694089,10.352484 C 4.1255189,10.262634 4.0870689,10.160904 3.9969989,10.160904 C 3.9586489,10.160904 3.8956889,10.126014 3.8570989,10.083364 C 3.7552689,9.9708439 3.5183789,9.8176839 3.2248689,9.6745939 C 3.0836889,9.6057639 2.9514489,9.5307039 2.9310089,9.5077939 C 2.8068189,9.3685839 2.5400589,9.2283039 2.3586589,9.2068239 C 2.2341789,9.1920839 2.1307589,9.1546639 2.0785489,9.1054839 C 2.0330289,9.0626039 1.9344689,8.9808239 1.8595389,8.9237439 C 1.7597689,8.8477439 1.7233089,8.7921039 1.7233089,8.7158339 C 1.7233089,8.6585639 1.6898689,8.5814339 1.6489889,8.5444439 C 1.6081089,8.5074439 1.5746689,8.4308839 1.5746689,8.3743139 C 1.5746689,8.2505439 1.4100289,8.0427739 1.3119489,8.0427739 C 1.2659089,8.0427739 1.2332589,8.0780539 1.2173689,8.1449639 C 1.2040089,8.2011739 1.1675289,8.2765539 1.1363089,8.3124939 C 1.0833589,8.3734039 1.0749289,8.3736639 1.0114389,8.3162039 C 0.9075289,8.2221739 0.8603389,8.0114339 0.9231189,7.9218039 C 1.0489489,7.7421439 0.8039689,7.6776539 0.5965689,7.8358439 C 0.5314189,7.8855439 0.4317789,7.9438139 0.3751389,7.9653539 C 0.23496887,8.0186439 0.21533887,8.0939139 0.3077589,8.2237039 C 0.4011689,8.3548839 0.4024589,8.3712539 0.3261489,8.4555839 C 0.2815589,8.5048439 0.27311887,8.5589239 0.2922889,8.6723939 C 0.3203489,8.8384539 0.4654189,8.9811139 0.8126289,9.1840839 C 0.9670389,9.2743439 1.0092589,9.3233139 1.0641889,9.4758939 C 1.1997989,9.8525439 1.2585189,9.9464239 1.4764289,10.135024 L 1.6995489,10.328124 L 1.9994189,10.330634 C 2.1643489,10.332014 2.3127789,10.336204 2.3292589,10.339924 C 2.3457489,10.343654 2.3290189,10.398194 2.2920989,10.461134 C 2.2260489,10.573724 2.2262989,10.576644 2.3079289,10.643064 C 2.3535489,10.680204 2.4789689,10.731434 2.5866289,10.756924 C 2.6942889,10.782414 2.8725189,10.851044 2.9826889,10.909434 C 3.0928689,10.967814 3.2057389,11.015584 3.2335189,11.015584 C 3.2612989,11.015584 3.3135189,11.045074 3.3495689,11.081114 C 3.3856089,11.117164 3.4692189,11.185184 3.5353689,11.232284 C 3.6576989,11.319394 3.6932389,11.456114 3.6225489,11.567674 C 3.5733989,11.645234 3.4467689,11.585254 3.3948089,11.459794 C 3.3693089,11.398244 3.3139089,11.342044 3.2700389,11.333224 C 3.2266389,11.324514 3.1409689,11.307084 3.0796589,11.294494 C 2.8120189,11.239564 2.7746889,11.269854 2.6610189,11.634134 C 2.6172189,11.774474 2.6302189,11.795714 2.8110889,11.879364 C 2.9477489,11.942554 3.0239089,12.058764 3.0239089,12.204064 C 3.0239089,12.246734 2.9709389,12.298794 2.8845589,12.341004 C 2.7685089,12.397704 2.7431989,12.430834 2.7331489,12.539154 C 2.7265189,12.610684 2.6908489,12.702654 2.6538889,12.743534 C 2.6169289,12.784404 2.5592189,12.872194 2.5256389,12.938624 C 2.4549189,13.078554 2.3751889,13.091284 2.2581289,12.981314 L 2.1750289,12.903234 L 2.1204689,13.009184 C 2.0904589,13.067454 2.0455189,13.183484 2.0205989,13.267024 C 1.9819189,13.396664 1.9844389,13.436634 2.0377589,13.539744 C 2.0955989,13.651584 2.0957689,13.669994 2.0400889,13.787324 C 1.9889389,13.895114 1.9609389,13.914074 1.8528689,13.914074 C 1.7571789,13.914074 1.6936589,13.881944 1.5957289,13.784014 z M 6.2575889,12.445354 C 6.2834389,12.414204 6.2958289,12.379954 6.2851189,12.369234 C 6.2744089,12.358524 6.1443389,12.339594 5.9960889,12.327164 C 5.7767189,12.308774 5.7297089,12.314094 5.7435789,12.355714 C 5.7592589,12.402754 6.0071389,12.489714 6.1500989,12.498344 C 6.1833689,12.500344 6.2317289,12.476504 6.2575889,12.445354 z M -3.3304611,3.7739144 C -3.3304611,3.7559844 -3.3555511,3.7204844 -3.3862011,3.6950444 C -3.4314111,3.6575244 -3.4419411,3.6590144 -3.4419411,3.7028844 C -3.4419411,3.7326344 -3.4308011,3.7681244 -3.4171711,3.7817544 C -3.3818811,3.8170444 -3.3304611,3.8123944 -3.3304611,3.7739144 z M -1.2453411,0.21842443 C -1.1252511,0.15632442 -1.1105911,0.044654425 -1.2197711,0.023624425 C -1.2927211,0.0095744247 -1.4353011,0.13986442 -1.4353011,0.22057443 C -1.4353011,0.29158443 -1.3857211,0.29102443 -1.2453411,0.21842443 z M 1.9286989,-1.6947957 C 1.9637389,-1.7515057 1.8834189,-1.8319657 1.7876389,-1.8360857 C 1.7420389,-1.8380457 1.6796489,-1.8427657 1.6489889,-1.8465857 C 1.5427989,-1.8597957 1.4260289,-1.8416757 1.4260289,-1.8119857 C 1.4260289,-1.7955757 1.5221789,-1.7553857 1.6396989,-1.7226757 C 1.9087289,-1.6477757 1.9001489,-1.6486057 1.9286989,-1.6947957 z M 1.8347889,-1.9347057 C 1.8347889,-1.9653657 1.8185889,-1.9904457 1.7987989,-1.9904457 C 1.7789989,-1.9904457 1.7724289,-1.9653657 1.7841889,-1.9347057 C 1.7959589,-1.9040557 1.8121489,-1.8789657 1.8201889,-1.8789657 C 1.8282189,-1.8789657 1.8347889,-1.9040557 1.8347889,-1.9347057 z M -0.58732113,-4.5094256 C -0.58079113,-4.5546556 -0.55153113,-4.5916556 -0.52229113,-4.5916556 C -0.49306113,-4.5916556 -0.46914113,-4.6237356 -0.46914113,-4.6629356 C -0.46914113,-4.7021456 -0.45819113,-4.7627556 -0.44481113,-4.7976256 C -0.42209113,-4.8568156 -0.42703113,-4.8567356 -0.51913113,-4.7963856 C -0.57338113,-4.7608356 -0.61778113,-4.7017156 -0.61778113,-4.6650056 C -0.61778113,-4.6282956 -0.66794114,-4.5560556 -0.72926114,-4.5044556 C -0.87025113,-4.3858156 -0.86902113,-4.3723356 -0.71997114,-4.4026356 C -0.63325114,-4.4202656 -0.59585113,-4.4503756 -0.58732113,-4.5094256 z M 1.1116989,-7.9385356 C 1.1251689,-7.9603356 1.1285489,-7.9858156 1.1192089,-7.9951556 C 1.0932889,-8.0210756 0.9801089,-7.9697556 0.9801089,-7.9320856 C 0.9801089,-7.8855756 1.0820489,-7.8905656 1.1116989,-7.9385356 z M 4.9461589,12.571404 C 4.8807189,12.534784 4.8562489,12.427674 4.9133189,12.427674 C 4.9640789,12.427674 5.0754589,12.567134 5.0414689,12.588144 C 5.0243789,12.598714 4.9814889,12.591174 4.9461589,12.571404 z M -1.6592411,12.370344 C -1.7296411,12.256434 -1.7356211,12.217624 -1.7036111,12.082354 C -1.6832711,11.996364 -1.6701111,11.821574 -1.6743811,11.693934 C -1.6804411,11.512644 -1.7000911,11.442754 -1.7641511,11.374554 C -1.8676311,11.264414 -1.8361111,11.164224 -1.6979911,11.164224 C -1.6424611,11.164224 -1.5166211,11.107064 -1.4183511,11.037194 C -1.2654611,10.928494 -1.2269911,10.915954 -1.1516911,10.950264 C -1.1033011,10.972314 -1.0637011,11.021944 -1.0637011,11.060554 C -1.0637011,11.099164 -1.0364611,11.183424 -1.0031711,11.247804 C -0.95560113,11.339794 -0.95096113,11.389114 -0.98150113,11.478204 C -1.0028611,11.540554 -1.0219511,11.700264 -1.0239211,11.833104 C -1.0258911,11.965954 -1.0413811,12.124814 -1.0583611,12.186134 C -1.0858211,12.285314 -1.1032811,12.296524 -1.2167411,12.287754 C -1.3283311,12.279134 -1.3495411,12.291894 -1.3865511,12.389944 C -1.4450711,12.544964 -1.5562611,12.536974 -1.6592411,12.370344 z M 6.9876589,12.291414 C 6.9369389,12.240704 6.9654589,12.199914 7.0435789,12.211414 C 7.1456989,12.226444 7.1800289,12.316194 7.0836589,12.316194 C 7.0444789,12.316194 7.0012789,12.305044 6.9876589,12.291414 z M -4.8911911,12.169744 C -4.8911911,12.148094 -4.8744711,12.130394 -4.8540311,12.130394 C -4.8335911,12.130394 -4.8168711,12.137764 -4.8168711,12.146774 C -4.8168711,12.155784 -4.8335911,12.173494 -4.8540311,12.186134 C -4.8744711,12.198764 -4.8911911,12.191384 -4.8911911,12.169744 z M -5.0546911,12.062084 C -5.0665111,12.042974 -5.0527611,12.007904 -5.0241511,11.984154 C -4.9933811,11.958624 -4.9633511,11.955184 -4.9506511,11.975734 C -4.9388311,11.994844 -4.9525811,12.029914 -4.9811911,12.053664 C -5.0119611,12.079194 -5.0419911,12.082634 -5.0546911,12.062084 z M -4.6405511,12.015094 C -4.7241711,11.967334 -4.8911911,11.812904 -4.8911911,11.783354 C -4.8911911,11.747634 -4.6790311,11.647244 -4.6050411,11.647954 C -4.5682611,11.648304 -4.4977611,11.691184 -4.4483611,11.743234 L -4.3585611,11.837874 L -4.4669411,11.945114 C -4.5521711,12.029434 -4.5892611,12.044384 -4.6405511,12.015094 z M -4.0860511,11.659694 C -4.1275511,11.618194 -4.1137811,11.572984 -4.0596411,11.572984 C -4.0314811,11.572984 -3.9876311,11.598074 -3.9621911,11.628724 C -3.9237511,11.675044 -3.9282111,11.684464 -3.9886011,11.684464 C -4.0285811,11.684464 -4.0724311,11.673324 -4.0860511,11.659694 z M 6.2754189,11.089904 C 6.2627889,11.069464 6.2701689,11.052744 6.2918089,11.052744 C 6.3134489,11.052744 6.3311589,11.069464 6.3311589,11.089904 C 6.3311589,11.110344 6.3237889,11.127064 6.3147789,11.127064 C 6.3057589,11.127064 6.2880489,11.110344 6.2754189,11.089904 z M 6.4612189,10.978424 C 6.4485889,10.957984 6.4549789,10.941264 6.4754189,10.941264 C 6.4958489,10.941264 6.5229089,10.957984 6.5355389,10.978424 C 6.5481789,10.998864 6.5417889,11.015584 6.5213489,11.015584 C 6.5009089,11.015584 6.4738589,10.998864 6.4612189,10.978424 z M -1.4051111,10.709454 C -1.4917511,10.636534 -1.5082511,10.588024 -1.5297111,10.343124 C -1.5539211,10.066824 -1.5522911,10.059144 -1.4527011,9.9808139 C -1.3967411,9.9367939 -1.3290811,9.9007839 -1.3023311,9.9007839 C -1.2755911,9.9007839 -1.2308611,9.8681539 -1.2029311,9.8282739 C -1.1563911,9.7618239 -1.1483811,9.7739739 -1.1071711,9.9735139 C -1.0772411,10.118414 -1.0740811,10.220364 -1.0977411,10.278274 C -1.1172911,10.326124 -1.1432511,10.426794 -1.1554211,10.501984 C -1.1675911,10.577164 -1.2062811,10.673514 -1.2414011,10.716094 L -1.3052411,10.793504 L -1.4051111,10.709454 z M -7.6046211,4.0471644 C -7.6587211,3.9819844 -7.6598611,3.9836244 -7.5068811,3.9058844 C -7.4433111,3.8735744 -7.3130711,3.7711144 -7.2174611,3.6781944 C -7.1218511,3.5852744 -7.0330411,3.5092444 -7.0201011,3.5092444 C -7.0071711,3.5092444 -6.9649511,3.4806144 -6.9262811,3.4456144 C -6.8598711,3.3855144 -6.8454011,3.3857444 -6.6650911,3.4497844 L -6.4742111,3.5175844 L -6.4073211,3.4349744 C -6.3081911,3.3125544 -6.3245111,3.2799344 -6.4710911,3.3074244 C -6.5831511,3.3284544 -6.6126311,3.3181144 -6.6781711,3.2347944 C -6.7202011,3.1813644 -6.7828011,3.1376444 -6.8172711,3.1376444 C -6.8517511,3.1376444 -6.9006111,3.1045744 -6.9258511,3.0641644 C -6.9633711,3.0040844 -6.9888311,2.9971844 -7.0655111,3.0263344 C -7.1404811,3.0548444 -7.1740611,3.0472244 -7.2329411,2.9883344 C -7.3638611,2.8574244 -7.3079511,2.7870244 -7.0415711,2.7473744 C -6.8507811,2.7189844 -6.6377111,2.5572344 -6.6377111,2.4408044 C -6.6377111,2.3341944 -6.7293411,2.2302344 -6.7995611,2.2571744 C -6.8801811,2.2881144 -6.8766611,2.2592644 -6.7857011,2.1436344 C -6.7416811,2.0876644 -6.7197011,2.0200544 -6.7324711,1.9798444 C -6.7584511,1.8979744 -6.7196111,1.8939444 -6.6213211,1.9682844 C -6.5816011,1.9983244 -6.4705311,2.0228444 -6.3741311,2.0228444 C -6.2111111,2.0228444 -6.1958011,2.0145244 -6.1516711,1.9020744 C -6.1256011,1.8356444 -6.1022911,1.7645744 -6.0998611,1.7441444 C -6.0974411,1.7237044 -6.0767211,1.6730544 -6.0538111,1.6315844 C -6.0192311,1.5689644 -6.0271911,1.5417444 -6.1008211,1.4708744 C -6.1495811,1.4239544 -6.2003911,1.3273444 -6.2137411,1.2562044 C -6.2333211,1.1518244 -6.2215511,1.1093244 -6.1528211,1.0361644 C -6.0473911,0.92394443 -6.0676211,0.89892443 -6.2268711,0.94460443 C -6.3070711,0.96760443 -6.3744211,0.96678443 -6.4202711,0.94224443 C -6.4589611,0.92154443 -6.5063111,0.91430443 -6.5254911,0.92615443 C -6.5806011,0.96022443 -6.7120311,0.86010443 -6.7120311,0.78406443 C -6.7120311,0.74615443 -6.6751011,0.66326443 -6.6299711,0.59988443 C -6.5666611,0.51097443 -6.5453711,0.42166443 -6.5368411,0.20919443 C -6.5249611,-0.086865572 -6.5125811,-0.072235572 -6.7078311,0.0071044247 C -6.7469311,0.022994425 -6.7549311,0.0019644247 -6.7409611,-0.080065572 C -6.7308311,-0.13953557 -6.7089211,-0.22035557 -6.6922611,-0.25966557 C -6.6692811,-0.31390557 -6.6747311,-0.32596557 -6.7148711,-0.30968557 C -6.9033411,-0.23320557 -6.8978811,-0.23222557 -6.8966611,-0.34213557 C -6.8954011,-0.45641557 -6.7483811,-0.65268557 -6.6640411,-0.65268557 C -6.6064411,-0.65268557 -6.5262311,-0.80407557 -6.5262311,-0.91280556 C -6.5262311,-0.95175556 -6.5469411,-1.0290756 -6.5722511,-1.0846156 C -6.6102711,-1.1680756 -6.6091511,-1.1886456 -6.5657411,-1.2031156 C -6.5015311,-1.2245156 -6.2661111,-1.4560956 -6.2661111,-1.4978656 C -6.2661111,-1.5144356 -6.2399511,-1.5653456 -6.2079711,-1.6110057 C -6.1544211,-1.6874557 -6.1434811,-1.6895757 -6.0696411,-1.6378557 C -6.0207911,-1.6036357 -5.9064111,-1.5816857 -5.7769611,-1.5816857 C -5.6600811,-1.5816857 -5.5540311,-1.5648156 -5.5412911,-1.5441956 C -5.4953511,-1.4698656 -5.5667411,-1.3613356 -5.7290011,-1.2588256 C -5.8199611,-1.2013656 -5.8944111,-1.1340356 -5.8944511,-1.1092056 C -5.8944811,-1.0843756 -5.9279611,-1.0461656 -5.9688311,-1.0242856 C -6.1011711,-0.95346556 -6.0555611,-0.90250557 -5.8830011,-0.92838556 C -5.7354911,-0.95050556 -5.3299711,-0.88439557 -5.2285011,-0.82167557 C -5.1778611,-0.79038557 -5.1762911,-0.66459557 -5.2261611,-0.63377557 C -5.2468911,-0.62096557 -5.2977811,-0.54397557 -5.3392511,-0.46268557 C -5.3807211,-0.38140557 -5.4734311,-0.24983557 -5.5452811,-0.17030557 C -5.6171211,-0.090785572 -5.6707411,0.0040744247 -5.6644411,0.040484425 C -5.6561711,0.088234425 -5.6831911,0.11220442 -5.7613911,0.12647442 C -5.9190111,0.15523442 -5.9304111,0.23895443 -5.7768411,0.23998443 C -5.5252311,0.24166443 -5.3538311,0.50805443 -5.3231011,0.94519443 C -5.3047811,1.2057444 -5.2951811,1.2311644 -5.1757611,1.3353844 C -5.0019311,1.4870844 -4.9552011,1.5856944 -4.9027811,1.9113644 C -4.8781111,2.0646444 -4.8468211,2.2442144 -4.8332411,2.3104044 C -4.8143711,2.4024044 -4.8226711,2.4361644 -4.8684511,2.4537344 C -4.9370011,2.4800344 -4.9479111,2.5637644 -4.8876511,2.6010144 C -4.8652611,2.6148444 -4.8080211,2.6053344 -4.7604511,2.5798744 C -4.6566311,2.5243144 -4.5296811,2.5509544 -4.3955711,2.6564544 C -4.2134011,2.7997444 -4.2908311,3.1205844 -4.5511111,3.3009544 C -4.6359611,3.3597644 -4.7053911,3.4306844 -4.7053911,3.4585544 C -4.7053911,3.4864344 -4.7221111,3.5092444 -4.7425511,3.5092444 C -4.8301511,3.5092444 -4.7698711,3.6211544 -4.6680511,3.6475344 C -4.6066411,3.6634444 -4.5564811,3.6890044 -4.5565711,3.7043344 C -4.5566711,3.7196644 -4.5567511,3.7534844 -4.5567511,3.7794944 C -4.5567511,3.8635344 -4.8974411,4.0010244 -5.0955711,3.9969344 C -5.2347211,3.9940644 -5.5784911,3.9344544 -5.6257511,3.9050044 C -5.6516611,3.8888644 -5.7947311,3.8953144 -5.9437011,3.9193444 C -6.1949711,3.9598844 -6.2250811,3.9573844 -6.3605411,3.8847844 C -6.5658011,3.7747744 -6.6236911,3.7857844 -6.7306111,3.9551644 C -6.7822211,4.0369144 -6.8316411,4.1038044 -6.8404411,4.1038044 C -6.8492311,4.1038044 -6.9166211,4.0682944 -6.9901911,4.0248844 C -7.1398411,3.9365844 -7.3424911,3.9460344 -7.4534811,4.0464744 C -7.5321411,4.1176644 -7.5460611,4.1177244 -7.6046211,4.0471644 z M -8.9788011,2.6928344 C -9.1103211,2.6773444 -9.1483211,2.6570844 -9.1567911,2.5979444 C -9.1627311,2.5565144 -9.2169611,2.5008844 -9.2775611,2.4740644 C -9.3965007,2.4214144 -9.4256507,2.3055244 -9.3292611,2.2685444 C -9.2905111,2.2536744 -9.2788911,2.2211844 -9.2946011,2.1716644 C -9.3130211,2.1136444 -9.3014011,2.0971644 -9.2420811,2.0971644 C -9.1737911,2.0971644 -9.0036711,1.9449844 -8.7651311,1.6705044 C -8.6669111,1.5574944 -8.6629611,1.5397644 -8.7359511,1.5397644 C -8.7658911,1.5397644 -8.8087111,1.5055144 -8.8311111,1.4636644 C -8.8535111,1.4218044 -8.9168111,1.3703544 -8.9717711,1.3493244 L -9.0717011,1.3110944 L -8.9674411,1.2210444 C -8.9100911,1.1715244 -8.8372111,1.1309944 -8.8054811,1.1309944 C -8.7488211,1.1309944 -8.7505511,1.0818844 -8.8149011,0.86458443 C -8.8451511,0.76241443 -8.6977111,0.74332443 -8.5558011,0.83103443 C -8.4220011,0.91372443 -8.2913311,0.93098443 -8.2541811,0.87087443 C -8.2415511,0.85044443 -8.1987511,0.83371443 -8.1590811,0.83371443 C -8.0634111,0.83371443 -8.0676611,0.76835443 -8.1686411,0.68658443 L -8.2503311,0.62044443 L -8.1687311,0.59454443 C -8.1238511,0.58029443 -8.0769211,0.52795443 -8.0644411,0.47822443 C -8.0375911,0.37126443 -7.8909711,0.35446443 -7.7635211,0.44372443 C -7.6766211,0.50459443 -7.5846011,0.51259443 -7.3749111,0.47751443 C -7.1826111,0.44534443 -7.1128811,0.49978443 -7.0539811,0.72807443 C -6.9613211,1.0872644 -6.9695011,1.1263744 -7.1579611,1.2254044 C -7.2499311,1.2737444 -7.3435511,1.3290944 -7.3660111,1.3484144 C -7.3884711,1.3677444 -7.4185811,1.5399344 -7.4329311,1.7310644 C -7.4570611,2.0524444 -7.4701211,2.0956344 -7.6065311,2.3053044 L -7.7540411,2.5320244 L -7.9420811,2.5139544 C -8.1122111,2.4976144 -8.3319811,2.5433944 -8.6257811,2.6563944 C -8.7589811,2.7076344 -8.8091611,2.7128144 -8.9788011,2.6928344 z M -6.7120311,1.3585044 C -6.7120311,1.3109944 -6.6027711,1.2278744 -6.5757811,1.2548644 C -6.5487911,1.2818544 -6.6319111,1.3911244 -6.6794211,1.3911244 C -6.6973611,1.3911244 -6.7120311,1.3764444 -6.7120311,1.3585044 z M -6.9083211,0.35992443 C -6.8666111,0.24849443 -6.7494811,0.069614425 -6.7493311,0.11712442 C -6.7491311,0.18405442 -6.8698211,0.42495443 -6.9035511,0.42495443 C -6.9195611,0.42495443 -6.9217111,0.39569443 -6.9083211,0.35992443 z M 2.2289489,-0.30270557 C 2.1868189,-0.41247557 2.2061589,-0.59865557 2.2692689,-0.69086557 C 2.4079289,-0.89349557 2.4633989,-0.86873557 2.4459389,-0.61199557 C 2.4278089,-0.34543557 2.2886589,-0.14710557 2.2289489,-0.30270557 z M 3.5162889,-1.1618856 C 3.3753489,-1.2141856 3.5619189,-1.5073656 3.7361289,-1.5073656 C 3.8195789,-1.5073656 3.8672989,-1.4076356 3.8194789,-1.3332056 C 3.7691889,-1.2549356 3.5695389,-1.1421256 3.5162889,-1.1618856 z M 3.5817089,-1.5997957 C 3.5208689,-1.6730957 3.5605989,-1.7674857 3.6522789,-1.7674857 C 3.7522789,-1.7674857 3.7790289,-1.7112457 3.7222789,-1.6203557 C 3.6658289,-1.5299756 3.6424889,-1.5265556 3.5817089,-1.5997957 z M 2.0289889,-9.6149056 C 2.0493589,-9.6760056 2.1603289,-9.7410356 2.1913189,-9.7100456 C 2.2266789,-9.6746956 2.1352389,-9.5711156 2.0686789,-9.5711156 C 2.0388289,-9.5711156 2.0209689,-9.5908156 2.0289889,-9.6149056 z " />
</svg>
